<?xml version="1.0" encoding="iso-8859-1"?>
<!-- Generator: Adobe Illustrator 19.0.0, SVG Export Plug-In . SVG Version: 6.00 Build 0)  -->
<svg version="1.1" id="Capa_1" xmlns="http://www.w3.org/2000/svg" xmlns:xlink="http://www.w3.org/1999/xlink" x="0px" y="0px"
	 viewBox="0 0 512 512" style="enable-background:new 0 0 512 512;" xml:space="preserve">
<circle style="fill:#FEDB41;" cx="256" cy="256" r="256"/>
<path style="fill:#FE9923;" d="M511.98,257.558L429,174.578l-21.684,58.023l-48.889-48.889L83,316.492l21,20.273l-11.633,31.45
	l142.951,142.951C242.141,511.711,249.036,512,256,512C396.864,512,511.14,398.224,511.98,257.558z"/>
<path style="fill:#BF0000;" d="M408.727,174.578v10.137v10.137v10.137c0,16.769-13.641,30.41-30.41,30.41
	c-5.603,0-10.137,4.534-10.137,10.137s4.534,10.137,10.137,10.137c27.945,0,50.684-22.738,50.684-50.684v-10.137v-10.137v-10.137
	H408.727z"/>
<path style="fill:#FC4629;" d="M388.453,255.671c0,26.558-10.137,51.697-28.788,70.754l-123.263,17.841l-78.052,11.15
	c-16.421-10.137-29.803-23.517-39.129-38.925H83v-81.094h26.693c4.46-13.178,12.569-26.355,24.328-39.736l-33.655-33.653
	l7.299-7.096c26.558-26.761,72.984-26.963,99.745-0.608h79.674C343.041,154.304,388.453,199.716,388.453,255.671z"/>
<path style="fill:#FF2615;" d="M388.453,255.671c0,26.558-10.137,51.697-28.788,70.754l-123.263,17.841V154.304h50.684
	C343.041,154.304,388.453,199.716,388.453,255.671z"/>
<path style="fill:#6ECD24;" d="M226.266,336.765v20.273h-81.094v-20.273c0-22.302,18.247-40.547,40.547-40.547
	c11.15,0,21.287,4.46,28.585,11.961C221.806,315.478,226.266,325.615,226.266,336.765z"/>
<path style="fill:#66BD21;" d="M226.266,336.765v20.273h-40.547v-60.82c11.15,0,21.287,4.46,28.585,11.961
	C221.806,315.478,226.266,325.615,226.266,336.765z"/>
<path style="fill:#FEDB41;" d="M307.359,336.765v20.273h-81.094v-20.273c0-22.302,18.247-40.547,40.547-40.547
	c11.15,0,21.287,4.46,28.585,11.961C302.9,315.478,307.359,325.615,307.359,336.765z"/>
<path style="fill:#FCBF29;" d="M307.359,336.765v20.273h-40.547v-60.82c11.15,0,21.287,4.46,28.585,11.961
	C302.9,315.478,307.359,325.615,307.359,336.765z"/>
<path style="fill:#6ECD24;" d="M388.453,336.765v20.273h-81.094v-20.273c0-22.302,18.247-40.547,40.547-40.547
	c11.15,0,21.287,4.46,28.585,11.961C383.994,315.478,388.453,325.615,388.453,336.765z"/>
<path style="fill:#66BD21;" d="M388.453,336.765v20.273h-40.547v-60.82c11.15,0,21.287,4.46,28.585,11.961
	C383.994,315.478,388.453,325.615,388.453,336.765z"/>
<path style="fill:#994C0F;" d="M408.727,336.765v10.137c0,16.826-13.583,30.41-30.41,30.41H114.762
	c-16.827,0-31.762-13.584-31.762-30.41v-10.137H408.727z"/>
<rect x="145.17" y="235.4" style="fill:#57555C;" width="20.273" height="20.273"/>
<path style="fill:#713708;" d="M408.727,336.765v10.137c0,16.826-13.583,30.41-30.41,30.41H236.402v-40.547H408.727z"/>
<g>
</g>
<g>
</g>
<g>
</g>
<g>
</g>
<g>
</g>
<g>
</g>
<g>
</g>
<g>
</g>
<g>
</g>
<g>
</g>
<g>
</g>
<g>
</g>
<g>
</g>
<g>
</g>
<g>
</g>
</svg>
