<?xml version="1.0" encoding="iso-8859-1"?>
<!-- Generator: Adobe Illustrator 19.0.0, SVG Export Plug-In . SVG Version: 6.00 Build 0)  -->
<svg version="1.1" id="Capa_1" xmlns="http://www.w3.org/2000/svg" xmlns:xlink="http://www.w3.org/1999/xlink" x="0px" y="0px"
	 viewBox="0 0 512.001 512.001" style="enable-background:new 0 0 512.001 512.001;" xml:space="preserve">
<circle style="fill:#FEDB41;" cx="256" cy="256" r="256"/>
<path style="fill:#FE9923;" d="M512,256c0-3.203-0.079-6.386-0.196-9.56L386.54,121.176h-61.164l-29.421-29.412l-68.366,14.588
	l-14.603-14.588L91.764,212.986l14.588,14.603l-14.588,68.366l29.411,29.421v37.039l17,16.85l-12.716,11.56l120.98,120.98
	c3.174,0.117,6.357,0.196,9.56,0.196C397.385,512,512,397.385,512,256z"/>
<path style="fill:#66BD21;" d="M328.598,433L328.598,433c-22.911,0-41.484-19.265-41.484-42.176v-20.742h82.969v20.742
	C370.082,413.735,351.509,433,328.598,433z"/>
<path style="fill:#FF2615;" d="M245.629,433L245.629,433c-22.911,0-41.484-19.265-41.484-42.176v-20.742h82.969v20.742
	C287.113,413.735,268.54,433,245.629,433z"/>
<path style="fill:#66BD21;" d="M390.824,266.371h-20.742v-82.969h20.742c22.911,0,42.176,18.573,42.176,41.484l0,0
	C433,247.798,413.735,266.371,390.824,266.371z"/>
<path style="fill:#FF2615;" d="M390.824,349.34h-20.742v-82.969h20.742c22.911,0,42.176,18.573,42.176,41.484l0,0
	C433,330.767,413.735,349.34,390.824,349.34z"/>
<path style="fill:#6ECD24;" d="M224.887,141.918h-82.969v-20.742c0-22.911,18.573-42.176,41.484-42.176l0,0
	c22.911,0,41.484,19.265,41.484,42.176L224.887,141.918L224.887,141.918z"/>
<path style="fill:#FC4629;" d="M307.855,141.918h-82.969v-20.742C224.887,98.265,243.46,79,266.371,79l0,0
	c22.911,0,41.484,19.265,41.484,42.176V141.918z"/>
<path style="fill:#6ECD24;" d="M141.918,307.855h-20.742C98.265,307.855,79,289.282,79,266.371l0,0
	c0-22.911,19.265-41.484,42.176-41.484h20.742V307.855z"/>
<path style="fill:#FC4629;" d="M141.918,224.887h-20.742C98.265,224.887,79,206.314,79,183.402l0,0
	c0-22.911,19.265-41.484,42.176-41.484h20.742V224.887z"/>
<path style="fill:#FEC478;" d="M390.824,390.824H125.46l265.364-241.239V390.824z"/>
<path style="fill:#FEDBAB;" d="M121.176,362.415V121.176H386.54L121.176,362.415z"/>
<g>
	<rect x="328.6" y="328.6" style="fill:#FE9923;" width="20.742" height="20.742"/>
	<rect x="266.37" y="328.6" style="fill:#FE9923;" width="20.742" height="20.742"/>
	<rect x="328.6" y="266.37" style="fill:#FE9923;" width="20.742" height="20.742"/>
</g>
<g>
	<rect x="162.66" y="162.66" style="fill:#FEA832;" width="20.742" height="20.742"/>
	<rect x="162.66" y="224.89" style="fill:#FEA832;" width="20.742" height="20.742"/>
	<rect x="224.89" y="162.66" style="fill:#FEA832;" width="20.742" height="20.742"/>
</g>
<g>
</g>
<g>
</g>
<g>
</g>
<g>
</g>
<g>
</g>
<g>
</g>
<g>
</g>
<g>
</g>
<g>
</g>
<g>
</g>
<g>
</g>
<g>
</g>
<g>
</g>
<g>
</g>
<g>
</g>
</svg>
