<?xml version="1.0" encoding="iso-8859-1"?>
<!-- Generator: Adobe Illustrator 19.0.0, SVG Export Plug-In . SVG Version: 6.00 Build 0)  -->
<svg version="1.1" id="Capa_1" xmlns="http://www.w3.org/2000/svg" xmlns:xlink="http://www.w3.org/1999/xlink" x="0px" y="0px"
	 viewBox="0 0 512 512" style="enable-background:new 0 0 512 512;" xml:space="preserve">
<circle style="fill:#FEDB41;" cx="256" cy="256" r="256"/>
<path style="fill:#FE9923;" d="M508.47,298.486L287.984,78l-56.778,6.702L118.158,352.308l158.831,158.831
	C394.375,501.612,489.357,412.899,508.47,298.486z"/>
<path style="fill:#10BB67;" d="M350.563,256.695c0,74.884-60.7,135.586-135.586,135.586S78,331.58,78,256.695
	c0-74.886,62.091-135.586,136.977-135.586S350.563,181.81,350.563,256.695z"/>
<path style="fill:#0CA656;" d="M350.563,256.695c0,74.884-60.7,135.586-135.586,135.586V121.109
	C289.862,121.109,350.563,181.81,350.563,256.695z"/>
<path style="fill:#32D736;" d="M287.984,256.695c0,74.884-32.749,135.586-73.008,135.586s-73.008-60.702-73.008-135.586
	c0-74.886,32.749-135.586,73.008-135.586S287.984,181.81,287.984,256.695z"/>
<path style="fill:#10BB67;" d="M287.984,256.695c0,74.884-32.749,135.586-73.008,135.586V121.109
	C255.235,121.109,287.984,181.81,287.984,256.695z"/>
<path style="fill:#6ECD24;" d="M372.161,180.414l22.125,22.125c52.951,52.951,52.952,138.795,0,191.747s-138.796,52.951-191.747,0
	l-22.125-22.125l29.5-29.5l36.875,7.375l103.249-103.249l-7.375-36.875L372.161,180.414z"/>
<path style="fill:#66BD21;" d="M298.412,298.412l95.874,95.874c-52.952,52.952-138.796,52.951-191.747,0l-22.125-22.125l29.5-29.5
	l36.875,7.375L298.412,298.412z"/>
<path style="fill:#FC4629;" d="M342.662,209.914l22.125,22.125c36.727,36.727,36.727,96.021,0,132.748s-96.021,36.727-132.748,0
	l-22.125-22.125L342.662,209.914z"/>
<path style="fill:#FF2615;" d="M276.288,276.288l88.499,88.499c-36.727,36.727-96.021,36.727-132.748,0l-22.125-22.125
	L276.288,276.288z"/>
<path style="fill:#57555C;" d="M353.09,294.097h-20.86c-5.765,0-10.43-4.665-10.43-10.43c0-5.765,4.665-10.43,10.43-10.43h20.859
	c5.765,0,10.43,4.665,10.43,10.43C363.519,289.432,358.854,294.097,353.09,294.097z"/>
<path style="fill:#3C3A41;" d="M283.667,363.519c-5.765,0-10.43-4.665-10.43-10.43V332.23c0-5.765,4.665-10.43,10.43-10.43
	c5.765,0,10.43,4.665,10.43,10.43v20.859C294.097,358.854,289.432,363.519,283.667,363.519z"/>
<path style="fill:#57555C;" d="M320.537,305.787l14.75,14.75c4.129,4.129,4.13,10.619,0,14.75c-4.13,4.13-10.62,4.129-14.75,0
	l-14.75-14.75c-4.13-4.13-4.13-10.619,0-14.75S316.407,301.657,320.537,305.787z"/>
<path style="fill:#3C3A41;" d="M305.787,305.787l29.5,29.5c-4.13,4.13-10.62,4.129-14.75,0l-14.75-14.75
	C301.657,316.407,301.657,309.918,305.787,305.787z"/>
<path style="fill:#BF6015;" d="M287.984,78v20.859h-31.289c-17.314,0-31.289,15.366-31.289,32.68c0,5.84-4.588,10.43-10.43,10.43
	s-10.43-4.59-10.43-10.43c0-11.681,3.755-23.919,10.43-32.471C224.364,86.343,239.59,78,256.695,78H287.984z"/>
<path style="fill:#713708;" d="M287.984,78v20.859h-31.289c-17.314,0-31.289,15.366-31.289,32.68c0,5.84-4.588,10.43-10.43,10.43
	V99.068C224.364,86.343,239.59,78,256.695,78H287.984z"/>
<g>
</g>
<g>
</g>
<g>
</g>
<g>
</g>
<g>
</g>
<g>
</g>
<g>
</g>
<g>
</g>
<g>
</g>
<g>
</g>
<g>
</g>
<g>
</g>
<g>
</g>
<g>
</g>
<g>
</g>
</svg>
