<?xml version="1.0" encoding="iso-8859-1"?>
<!-- Generator: Adobe Illustrator 19.0.0, SVG Export Plug-In . SVG Version: 6.00 Build 0)  -->
<svg version="1.1" id="Capa_1" xmlns="http://www.w3.org/2000/svg" xmlns:xlink="http://www.w3.org/1999/xlink" x="0px" y="0px"
	 viewBox="0 0 512 512" style="enable-background:new 0 0 512 512;" xml:space="preserve">
<circle style="fill:#FC4629;" cx="255.901" cy="256" r="255.901"/>
<g>
	<path style="fill:#AA0031;" d="M135.271,359.725l150.437,150.437c7.58-0.88,15.061-2.077,22.424-3.605L148.285,346.711
		L135.271,359.725z"/>
	<path style="fill:#AA0031;" d="M123.482,400.032l110.964,110.964c7.075,0.588,14.227,0.903,21.455,0.903
		c1.808,0,3.61-0.031,5.409-0.069L136.496,387.018L123.482,400.032z"/>
	<path style="fill:#AA0031;" d="M149.179,321.577l179.736,179.735c6.582-1.956,13.055-4.164,19.404-6.624L162.193,308.562
		L149.179,321.577z"/>
	<path style="fill:#AA0031;" d="M511.592,241.325L399.136,128.868L217.968,337.08l149.2,149.2
		C452.87,444.927,512,357.207,512,255.676C512,250.859,511.855,246.076,511.592,241.325z"/>
</g>
<path style="fill:#FEA832;" d="M287.024,277.045l-13.014-39.043l-39.043-13.014c-10.802-10.802-28.241-10.802-39.043,0
	l-44.498,45.55l91.101,91.101l44.498-45.55C297.826,305.286,297.826,287.847,287.024,277.045z"/>
<path style="fill:#FE9923;" d="M287.024,316.088l-44.498,45.55l-45.55-45.55l77.034-78.087l13.014,39.043
	C297.826,287.847,297.826,305.286,287.024,316.088z"/>
<path style="fill:#FEA832;" d="M360.556,194.404l-8.46-34.489l-34.489-8.46c-22.645,11.193-40.865,29.413-52.058,52.058l8.46,34.489
	l34.489,8.46C331.143,235.269,349.363,217.048,360.556,194.404z"/>
<path style="fill:#FE9923;" d="M308.498,246.462l-34.489-8.46l78.087-78.087l8.46,34.489
	C349.363,217.048,331.143,235.269,308.498,246.462z"/>
<g>
	<path style="fill:#57555C;" d="M332.574,270.537l-6.508,6.507c-10.802,10.802-28.241,10.802-39.043,0l-52.058-52.058
		c-10.802-10.802-10.802-28.242,0-39.043l6.507-6.507L332.574,270.537z"/>
	<path style="fill:#57555C;" d="M417.168,146.901L365.11,94.843c-10.802-10.802-28.241-10.802-39.043,0L293.53,127.38l91.101,91.101
		l32.536-32.536C427.97,175.141,427.97,157.703,417.168,146.901z"/>
</g>
<g>
	<path style="fill:#3C3A41;" d="M417.168,185.944l-32.536,32.536l-45.55-45.55l52.058-52.058l26.029,26.029
		C427.97,157.703,427.97,175.141,417.168,185.944z"/>
	<path style="fill:#3C3A41;" d="M287.024,224.987l45.55,45.55l-6.508,6.507c-10.802,10.802-28.241,10.802-39.043,0l-26.029-26.029
		L287.024,224.987z"/>
</g>
<g>
	
		<rect x="140.992" y="300.378" transform="matrix(-0.7071 -0.7071 0.7071 -0.7071 37.4922 634.6906)" style="fill:#57555C;" width="18.405" height="18.405"/>
	
		<rect x="167.017" y="326.407" transform="matrix(-0.7071 0.7071 -0.7071 -0.7071 538.1373 448.3147)" style="fill:#57555C;" width="18.405" height="18.405"/>
</g>
<g>
	
		<rect x="193.059" y="352.43" transform="matrix(-0.7071 -0.7071 0.7071 -0.7071 89.5694 760.3664)" style="fill:#3C3A41;" width="18.405" height="18.405"/>
	
		<rect x="154.019" y="365.445" transform="matrix(-0.7071 -0.7071 0.7071 -0.7071 13.7199 754.9786)" style="fill:#3C3A41;" width="18.405" height="18.405"/>
</g>
<g>
	
		<rect x="127.989" y="339.415" transform="matrix(-0.7071 -0.7071 0.7071 -0.7071 -12.3095 692.1354)" style="fill:#57555C;" width="18.405" height="18.405"/>
	
		<rect x="114.957" y="378.458" transform="matrix(-0.7071 0.7071 -0.7071 -0.7071 486.0715 573.9839)" style="fill:#57555C;" width="18.405" height="18.405"/>
</g>
<g>
	
		<rect x="170.267" y="334.262" transform="matrix(-0.7071 0.7071 -0.7071 -0.7071 545.986 451.5711)" style="fill:#3C3A41;" width="18.405" height="9.202"/>
	
		<rect x="122.821" y="381.72" transform="matrix(0.7071 0.7071 -0.7071 0.7071 313.7447 24.3971)" style="fill:#3C3A41;" width="9.202" height="18.405"/>
</g>
<g>
</g>
<g>
</g>
<g>
</g>
<g>
</g>
<g>
</g>
<g>
</g>
<g>
</g>
<g>
</g>
<g>
</g>
<g>
</g>
<g>
</g>
<g>
</g>
<g>
</g>
<g>
</g>
<g>
</g>
</svg>
