<?xml version="1.0" encoding="iso-8859-1"?>
<!-- Generator: Adobe Illustrator 19.0.0, SVG Export Plug-In . SVG Version: 6.00 Build 0)  -->
<svg version="1.1" id="Capa_1" xmlns="http://www.w3.org/2000/svg" xmlns:xlink="http://www.w3.org/1999/xlink" x="0px" y="0px"
	 viewBox="0 0 512 512" style="enable-background:new 0 0 512 512;" xml:space="preserve">
<circle style="fill:#FEDB41;" cx="256" cy="256" r="256"/>
<path style="fill:#FE9923;" d="M512,256c0-1.327-0.03-2.648-0.05-3.97L331.6,71.68l-58.413,6.726L138.022,403.973L245.83,511.781
	c3.375,0.132,6.762,0.219,10.17,0.219C397.385,512,512,397.385,512,256z"/>
<path style="fill:#BF0000;" d="M338.512,165.423L256,222.88l-82.512-57.457C190.12,133.239,220.145,114.88,256,114.88
	S321.88,133.239,338.512,165.423z"/>
<path style="fill:#AA0031;" d="M338.512,165.423L256,222.88v-108C291.855,114.88,321.88,133.239,338.512,165.423z"/>
<path style="fill:#6ECD24;" d="M331.6,71.68v21.6h-32.4c-17.928,0-32.4,14.472-32.4,32.4v43.2c0,6.047-4.751,10.8-10.8,10.8
	c-6.049,0-10.8-4.753-10.8-10.8v-43.2c0-12.096,3.888-23.328,10.8-32.184c9.72-13.177,25.488-21.816,43.2-21.816
	C299.2,71.68,331.6,71.68,331.6,71.68z"/>
<path style="fill:#66BD21;" d="M331.6,71.68v21.6h-32.4c-17.928,0-32.4,14.472-32.4,32.4v43.2c0,6.047-4.751,10.8-10.8,10.8V93.496
	c9.72-13.177,25.488-21.816,43.2-21.816H331.6z"/>
<path style="fill:#FF2615;" d="M169.6,158.08c-34.879,0-75.6,28.287-75.6,108c0,71.518,31.05,152.64,75.6,152.64
	c9.608,0,24.142-3.945,38.813-22.739l6.813-219.686C202.728,164.376,186.95,158.08,169.6,158.08z"/>
<path style="fill:#BF0000;" d="M342.4,158.08c-17.35,0-33.128,6.296-45.626,18.214l6.813,219.686
	c14.671,18.795,29.204,22.739,38.813,22.739c44.549,0,75.6-81.122,75.6-152.64C418,186.367,377.279,158.08,342.4,158.08z"/>
<path style="fill:#FC4629;" d="M256,158.08c-58.968,0-97.2,46.655-97.2,118.8c0,76.464,41.472,163.44,97.2,163.44
	s97.2-86.976,97.2-163.44C353.2,204.735,314.968,158.08,256,158.08z"/>
<path style="fill:#FF2615;" d="M353.2,276.88c0,76.464-41.472,163.44-97.2,163.44V158.08C314.968,158.08,353.2,204.735,353.2,276.88
	z"/>
<g>
</g>
<g>
</g>
<g>
</g>
<g>
</g>
<g>
</g>
<g>
</g>
<g>
</g>
<g>
</g>
<g>
</g>
<g>
</g>
<g>
</g>
<g>
</g>
<g>
</g>
<g>
</g>
<g>
</g>
</svg>
