<?xml version="1.0" encoding="iso-8859-1"?>
<!-- Generator: Adobe Illustrator 19.0.0, SVG Export Plug-In . SVG Version: 6.00 Build 0)  -->
<svg version="1.1" id="Capa_1" xmlns="http://www.w3.org/2000/svg" xmlns:xlink="http://www.w3.org/1999/xlink" x="0px" y="0px"
	 viewBox="0 0 512 512" style="enable-background:new 0 0 512 512;" xml:space="preserve">
<circle style="fill:#FEDB41;" cx="256" cy="256" r="256"/>
<path style="fill:#FE9923;" d="M512,256c0-7.25-0.318-14.425-0.908-21.522L394,117.387h-37.2l-18-18.4l-76.05,36.8l-16.35-18.4
	l-18-18.4l-92,36.8L118,320.4l55.2,55l8.585,30.028L286.537,510.18C413.524,495.083,512,387.05,512,256z"/>
<path style="fill:#DFCCBF;" d="M118,117.387V320.4h276V117.387H118z M136.4,135.787h239.2v18.4H136.4V135.787z M136.4,172.587h239.2
	V191.6H136.4V172.587z M136.4,210h239.2v18.4H136.4V210z M136.4,246.8h239.2v18.4H136.4V246.8z M136.4,302v-18.4h239.2V302H136.4z"
	/>
<polygon style="fill:#C8AD92;" points="256,265.2 375.6,265.2 375.6,246.8 256,246.8 256,228.4 375.6,228.4 375.6,210 256,210 
	256,191.6 375.6,191.6 375.6,172.587 256,172.587 256,154.187 375.6,154.187 375.6,135.787 256,135.787 256,117.387 394,117.387 
	394,320.4 256,320.4 256,302 375.6,302 375.6,283.6 256,283.6 "/>
<path style="fill:#DFCCBF;" d="M302,126.587c0,5.151-4.047,9.2-9.2,9.2h-73.6c-5.153,0-9.2-4.049-9.2-9.2c0-5.153,4.047-9.2,9.2-9.2
	h73.6C297.953,117.387,302,121.434,302,126.587z"/>
<path style="fill:#57555C;" d="M173.2,98.987v286.427c0,15.271,12.328,27.6,27.6,27.6s27.6-12.329,27.6-27.6V98.987H173.2z"/>
<path style="fill:#3C3A41;" d="M228.4,98.987v286.427c0,15.271-12.328,27.6-27.6,27.6V98.987H228.4z"/>
<path style="fill:#57555C;" d="M283.6,98.987v286.427c0,15.271,12.328,27.6,27.6,27.6s27.6-12.329,27.6-27.6V98.987H283.6z"/>
<path style="fill:#3C3A41;" d="M338.8,98.987v286.427c0,15.271-12.328,27.6-27.6,27.6V98.987H338.8z"/>
<g>
</g>
<g>
</g>
<g>
</g>
<g>
</g>
<g>
</g>
<g>
</g>
<g>
</g>
<g>
</g>
<g>
</g>
<g>
</g>
<g>
</g>
<g>
</g>
<g>
</g>
<g>
</g>
<g>
</g>
</svg>
