<?xml version="1.0" encoding="iso-8859-1"?>
<!-- Generator: Adobe Illustrator 19.0.0, SVG Export Plug-In . SVG Version: 6.00 Build 0)  -->
<svg version="1.1" id="Capa_1" xmlns="http://www.w3.org/2000/svg" xmlns:xlink="http://www.w3.org/1999/xlink" x="0px" y="0px"
	 viewBox="0 0 512 512" style="enable-background:new 0 0 512 512;" xml:space="preserve">
<circle style="fill:#FC4629;" cx="256" cy="256" r="256"/>
<path style="fill:#AA0031;" d="M509.459,292.066L374.264,156.871l-68.078,55.349l-21.565,14.401l-22.548-22.651L177.5,119.414
	l0.469,30.615l-14.301-0.231l-30.407-30.384L114.37,197.45l36.047,36.049l-9.73,104.252l-9.147,23.677l-18.267,28.115
	l121.582,121.581C241.831,511.695,248.879,512,256,512C385.141,512,491.929,416.37,509.459,292.066z"/>
<path style="fill:#994C0F;" d="M353.914,290.648c0,48.839-51.493,88.477-115.02,88.477s-116.199-39.637-116.199-88.477
	s52.673-88.477,116.199-88.477S353.914,241.808,353.914,290.648z"/>
<path style="fill:#713708;" d="M353.914,290.648c0,48.839-51.493,88.477-115.02,88.477V202.171
	C302.421,202.171,353.914,241.808,353.914,290.648z"/>
<path style="fill:#EFE6DE;" d="M407,200.578c0,7.079-2.831,13.803-7.786,18.934c-8.14,8.14-20.35,9.732-30.259,5.131l-26.543,26.543
	c-1.592,2.124-4.07,3.539-6.9,3.539h-0.886L317.285,238.8l-13.094-12.033c-3.362-3.362-3.362-9.025,0-12.564l27.25-27.074
	c-4.601-9.909-3.008-22.118,5.309-30.258c9.909-10.086,27.428-10.086,37.514,0c4.777,4.778,7.255,10.971,7.609,17.341
	c6.37,0.354,12.563,2.831,17.341,7.609C404.169,186.953,407,193.5,407,200.578z"/>
<path style="fill:#DFCCBF;" d="M407,200.578c0,7.079-2.831,13.803-7.786,18.934c-8.14,8.14-20.35,9.732-30.259,5.131l-26.543,26.543
	c-1.592,2.124-4.07,3.539-6.9,3.539h-0.886L317.285,238.8l64.588-64.588c6.37,0.354,12.563,2.831,17.341,7.609
	C404.169,186.953,407,193.5,407,200.578z"/>
<path style="fill:#BF6015;" d="M336.573,219.512c-18.934-19.111-62.288-0.354-81.222,18.757
	c-20.349,20.173-12.387,37.514,6.194,56.271c11.147,11.148,21.765,18.227,32.382,18.227c7.786,0,15.572-3.716,23.889-12.033
	C336.926,281.623,355.683,238.446,336.573,219.512z"/>
<path style="fill:#994C10;" d="M317.816,300.734c-8.317,8.316-16.103,12.033-23.889,12.033c-10.617,0-21.235-7.079-32.382-18.227
	l75.028-75.028C355.683,238.446,336.926,281.623,317.816,300.734z"/>
<path style="fill:#6ECD24;" d="M202.324,361.429v17.695h-70.781v-17.695c0-19.465,15.926-35.391,35.391-35.391
	c9.732,0,18.58,3.892,24.95,10.44C198.432,342.849,202.324,351.697,202.324,361.429z"/>
<path style="fill:#66BD21;" d="M202.324,361.429v17.695h-35.391v-53.086c9.732,0,18.58,3.892,24.95,10.44
	C198.432,342.849,202.324,351.697,202.324,361.429z"/>
<path style="fill:#FEDB41;" d="M274.285,361.429v17.695h-71.961v-17.695c0-19.465,17.106-35.391,36.57-35.391
	c9.732,0,18.58,3.892,24.95,10.44C270.393,342.849,274.285,351.697,274.285,361.429z"/>
<path style="fill:#FCBF29;" d="M274.285,361.429v17.695h-35.391v-53.086c9.732,0,18.58,3.892,24.95,10.44
	C270.393,342.849,274.285,351.697,274.285,361.429z"/>
<path style="fill:#DFCCBF;" d="M371.609,361.429v8.848c0,14.686-11.856,26.543-26.543,26.543H131.543
	c-14.687,0-26.543-11.857-26.543-26.543v-8.848H371.609z"/>
<path style="fill:#C8AD92;" d="M371.609,361.429v8.848c0,14.686-11.856,26.543-26.543,26.543H238.895v-35.391H371.609z"/>
<g>
	<path style="fill:#1DE8F1;" d="M118.41,200.685l9.815-14.723c-3.517-2.342-5.53-6.109-5.53-10.334s2.013-7.992,5.53-10.334
		c8.398-5.599,13.41-14.965,13.41-25.057s-5.011-19.458-13.41-25.057l-9.815,14.723c3.517,2.342,5.53,6.109,5.53,10.334
		s-2.013,7.992-5.53,10.334c-8.398,5.599-13.41,14.965-13.41,25.057C105,185.72,110.011,195.086,118.41,200.685z"/>
	<path style="fill:#1DE8F1;" d="M185.873,140.237c0-10.092-5.011-19.458-13.41-25.057l-9.815,14.723
		c3.517,2.342,5.53,6.109,5.53,10.334s-2.013,7.992-5.53,10.334c-8.398,5.599-13.41,14.965-13.41,25.057s5.011,19.458,13.41,25.057
		l9.815-14.723c-3.517-2.342-5.53-6.109-5.53-10.334s2.013-7.992,5.53-10.334C180.862,159.695,185.873,150.329,185.873,140.237z"/>
</g>
<g>
</g>
<g>
</g>
<g>
</g>
<g>
</g>
<g>
</g>
<g>
</g>
<g>
</g>
<g>
</g>
<g>
</g>
<g>
</g>
<g>
</g>
<g>
</g>
<g>
</g>
<g>
</g>
<g>
</g>
</svg>
