<?xml version="1.0" encoding="iso-8859-1"?>
<!-- Generator: Adobe Illustrator 19.0.0, SVG Export Plug-In . SVG Version: 6.00 Build 0)  -->
<svg version="1.1" id="Capa_1" xmlns="http://www.w3.org/2000/svg" xmlns:xlink="http://www.w3.org/1999/xlink" x="0px" y="0px"
	 viewBox="0 0 512 512" style="enable-background:new 0 0 512 512;" xml:space="preserve">
<circle style="fill:#32D736;" cx="256" cy="256" r="256"/>
<path style="fill:#0CA656;" d="M510.345,285.093L362.923,137.672h-21.538l-64-64.154L140.31,413.889l97.457,97.457
	C243.791,511.77,249.868,512,256,512C387.546,512,495.898,412.776,510.345,285.093z"/>
<rect x="149.08" y="137.67" style="fill:#FEDB41;" width="42.769" height="171.79"/>
<rect x="170.46" y="137.67" style="fill:#FCBF29;" width="21.385" height="171.79"/>
<rect x="191.85" y="116.29" style="fill:#FEDB41;" width="42.769" height="171.79"/>
<rect x="213.23" y="116.29" style="fill:#FCBF29;" width="21.385" height="171.79"/>
<rect x="234.62" y="73.52" style="fill:#FEDB41;" width="42.769" height="214.56"/>
<rect x="256" y="73.52" style="fill:#FCBF29;" width="21.385" height="214.56"/>
<rect x="277.38" y="116.29" style="fill:#FEDB41;" width="42.769" height="171.79"/>
<rect x="298.77" y="116.29" style="fill:#FCBF29;" width="21.385" height="171.79"/>
<rect x="320.15" y="137.67" style="fill:#FEDB41;" width="42.769" height="171.79"/>
<rect x="341.54" y="137.67" style="fill:#FCBF29;" width="21.385" height="171.79"/>
<path style="fill:#FC4629;" d="M313.525,202.538l-21.385,42.769h-72.28l-21.385-42.769H117v71.425
	c0,45.976,7.484,92.238,22.027,135.862l1.283,4.063l4.063,2.139c29.297,14.755,62.443,22.454,95.375,22.454h32.505
	c32.932,0,66.078-7.698,95.375-22.454l4.063-2.139l1.283-4.063C387.516,366.202,395,319.94,395,273.964v-71.425L313.525,202.538
	L313.525,202.538z"/>
<path style="fill:#FF2615;" d="M395,202.538v71.425c0,45.976-7.484,92.238-22.027,135.862l-1.283,4.063l-4.063,2.139
	c-29.297,14.755-62.443,22.454-95.375,22.454H256V245.308h36.14l21.385-42.769H395V202.538z"/>
<path style="fill:#FEDB41;" d="M256,288.077c-42.769,0-74.846,18.39-74.846,42.769c0,24.379,32.077,42.769,74.846,42.769
	s74.846-18.39,74.846-42.769C330.846,306.467,298.769,288.077,256,288.077z"/>
<path style="fill:#FCBF29;" d="M330.846,330.846c0,24.379-32.077,42.769-74.846,42.769v-85.538
	C298.769,288.077,330.846,306.467,330.846,330.846z"/>
<g>
</g>
<g>
</g>
<g>
</g>
<g>
</g>
<g>
</g>
<g>
</g>
<g>
</g>
<g>
</g>
<g>
</g>
<g>
</g>
<g>
</g>
<g>
</g>
<g>
</g>
<g>
</g>
<g>
</g>
</svg>
