<?xml version="1.0" encoding="iso-8859-1"?>
<!-- Generator: Adobe Illustrator 19.0.0, SVG Export Plug-In . SVG Version: 6.00 Build 0)  -->
<svg version="1.1" id="Capa_1" xmlns="http://www.w3.org/2000/svg" xmlns:xlink="http://www.w3.org/1999/xlink" x="0px" y="0px"
	 viewBox="0 0 512 512" style="enable-background:new 0 0 512 512;" xml:space="preserve">
<circle style="fill:#17ACE8;" cx="256" cy="256" r="256"/>
<path style="fill:#136EF1;" d="M503.038,323.315L395,215.277l-25.416,32.139l-40.561-32.139l-98-98.277l-81.445,16.289l16.289,16
	L191,202.571L117,395l115.956,115.956C240.549,511.634,248.231,512,256,512C374.086,512,473.48,432.04,503.038,323.315z"/>
<polygon style="fill:#EFE6DE;" points="214.734,117 214.734,166.41 190.301,182.699 165.867,166.41 165.867,117 "/>
<polygon style="fill:#DFCCBF;" points="214.734,117 214.734,166.41 190.301,182.699 190.301,117 "/>
<path style="fill:#FEDB41;" d="M233.141,214.463l-42.84,35.347l-42.84-35.347c4.398-3.258,7.981-7.33,10.913-11.892
	c5.213-8.145,7.493-18.895,7.493-24.759V166.41h48.867v11.403c0,5.538,2.281,16.614,7.493,24.759
	C225.16,207.133,228.743,211.205,233.141,214.463z"/>
<path style="fill:#FCBF29;" d="M233.141,214.463l-42.84,35.347v-83.4h24.434v11.403c0,5.538,2.281,16.614,7.493,24.759
	C225.16,207.133,228.743,211.205,233.141,214.463z"/>
<path style="fill:#57555C;" d="M263.602,269.031V395H117v-32.578l16.289-16.832v-65.156l-15.963-16.289
	c1.465-19.221,11.565-36.65,27.691-47.564c0.978-0.489,1.63-1.466,2.444-2.118l42.84,15.149l42.84-15.149
	c0.814,0.651,1.465,1.629,2.444,2.118C253.176,228.308,263.602,248.019,263.602,269.031z"/>
<path style="fill:#3C3A41;" d="M263.602,269.031V395h-73.301V229.612l42.84-15.149c0.814,0.651,1.465,1.629,2.444,2.118
	C253.176,228.308,263.602,248.019,263.602,269.031z"/>
<path style="fill:#DFCCBF;" d="M345.59,337.445v49.41c0,4.561-3.583,8.145-8.145,8.145s-8.145-3.583-8.145-8.145v-49.41
	c0-4.561,3.583-8.145,8.145-8.145S345.59,332.884,345.59,337.445z"/>
<path style="fill:#C8AD92;" d="M345.59,337.445v49.41c0,4.561-3.583,8.145-8.145,8.145v-65.699
	C342.007,329.301,345.59,332.884,345.59,337.445z"/>
<polygon style="fill:#EFE6DE;" points="395,215.277 395,267.24 377.244,274.57 337.445,279.944 304.65,284.506 279.891,251.602 
	279.891,215.277 "/>
<polygon style="fill:#DFCCBF;" points="395,215.277 395,267.24 377.244,274.57 337.445,279.944 337.445,215.277 "/>
<path style="fill:#FC4629;" d="M395,267.24v21.339c0,31.438-26.117,57.012-57.555,57.012s-57.555-25.574-57.555-57.012
	c0,0,0-35.184,0-36.976l24.76,16.615c8.633,5.701,20.741,4.561,28.072-2.769c1.465-1.466,3.095-2.77,4.723-4.072
	c11.24-8.145,26.931-9.448,39.799-3.095L395,267.24z"/>
<path style="fill:#FF2615;" d="M395,267.24v21.339c0,31.438-26.117,57.012-57.555,57.012v-84.214
	c11.24-8.145,26.931-9.448,39.799-3.095L395,267.24z"/>
<path d="M117,264.145v4.931c0-1.661,0.177-3.292,0.305-4.931H117z"/>
<path style="fill:#FEDB41;" d="M214.734,264.145v98.277H117v-93.391c0-1.628,0.163-3.258,0.326-4.887L214.734,264.145
	L214.734,264.145z"/>
<rect x="190.3" y="264.14" style="fill:#FCBF29;" width="24.434" height="98.28"/>
<rect x="149.58" y="117" style="fill:#57555C;" width="81.44" height="16.289"/>
<rect x="296.18" y="378.71" style="fill:#EFE6DE;" width="82.53" height="16.289"/>
<rect x="190.3" y="117" style="fill:#3C3A41;" width="40.723" height="16.289"/>
<rect x="337.44" y="378.71" style="fill:#DFCCBF;" width="41.27" height="16.289"/>
<g>
</g>
<g>
</g>
<g>
</g>
<g>
</g>
<g>
</g>
<g>
</g>
<g>
</g>
<g>
</g>
<g>
</g>
<g>
</g>
<g>
</g>
<g>
</g>
<g>
</g>
<g>
</g>
<g>
</g>
</svg>
