<?xml version="1.0" encoding="iso-8859-1"?>
<!-- Generator: Adobe Illustrator 19.0.0, SVG Export Plug-In . SVG Version: 6.00 Build 0)  -->
<svg version="1.1" id="Capa_1" xmlns="http://www.w3.org/2000/svg" xmlns:xlink="http://www.w3.org/1999/xlink" x="0px" y="0px"
	 viewBox="0 0 512 512" style="enable-background:new 0 0 512 512;" xml:space="preserve">
<circle style="fill:#32D736;" cx="256" cy="256" r="256"/>
<path style="fill:#0CA656;" d="M510.626,282.626L385.5,157.5L118.08,393.92l117.247,117.247C242.147,511.712,249.04,512,256,512
	C388.393,512,497.308,411.499,510.626,282.626z"/>
<path style="fill:#FEA832;" d="M334.38,334.347l-28.496,28.496l-52.005-52.005L187.04,390.5
	c-8.407,10.116-20.66,16.386-33.767,16.956c-12.965,0.712-25.931-4.274-35.193-13.536c-9.261-9.261-14.248-22.228-13.536-35.193
	c0.57-13.108,6.84-25.361,16.956-33.767l79.662-66.839l-52.005-52.005l28.496-28.496l32.486,3.99l121.962,121.962L334.38,334.347z"
	/>
<path style="fill:#FE9923;" d="M332.101,303.572l2.279,30.775l-28.496,28.496l-52.005-52.005L187.04,390.5
	c-8.407,10.116-20.66,16.386-33.767,16.956c-12.965,0.712-25.931-4.274-35.193-13.536l152.185-152.185L332.101,303.572z"/>
<polygon style="fill:#EFE6DE;" points="362.876,305.851 334.38,334.347 177.653,177.62 206.149,149.124 241.769,156.248 
	363.731,278.21 "/>
<polygon style="fill:#DFCCBF;" points="362.876,305.851 334.38,334.347 256.017,255.983 298.76,213.24 363.731,278.21 "/>
<polygon style="fill:#FC4629;" points="448.363,220.363 362.876,305.851 206.149,149.124 291.637,63.637 320.132,92.132 
	313.008,113.504 334.38,106.38 348.628,120.628 341.504,142 362.876,134.876 388.665,160.665 378.834,190.158 408.327,180.327 "/>
<polygon style="fill:#FF2615;" points="448.363,220.363 362.876,305.851 284.513,227.487 370,142 388.665,160.665 378.834,190.158 
	408.327,180.327 "/>
<g>
	
		<rect x="284.27" y="106.99" transform="matrix(0.7071 -0.7071 0.7071 0.7071 7.8598 253.1051)" style="fill:#BF0000;" width="50.37" height="20.15"/>
	
		<rect x="312.762" y="135.479" transform="matrix(0.7071 -0.7071 0.7071 0.7071 -3.9397 281.5965)" style="fill:#BF0000;" width="50.37" height="20.15"/>
</g>
<g>
</g>
<g>
</g>
<g>
</g>
<g>
</g>
<g>
</g>
<g>
</g>
<g>
</g>
<g>
</g>
<g>
</g>
<g>
</g>
<g>
</g>
<g>
</g>
<g>
</g>
<g>
</g>
<g>
</g>
</svg>
