<?xml version="1.0" encoding="iso-8859-1"?>
<!-- Generator: Adobe Illustrator 19.0.0, SVG Export Plug-In . SVG Version: 6.00 Build 0)  -->
<svg version="1.1" id="Capa_1" xmlns="http://www.w3.org/2000/svg" xmlns:xlink="http://www.w3.org/1999/xlink" x="0px" y="0px"
	 viewBox="0 0 512 512" style="enable-background:new 0 0 512 512;" xml:space="preserve">
<circle style="fill:#17ACE8;" cx="256" cy="256" r="256"/>
<path style="fill:#136EF1;" d="M506.564,308.673L298.157,100.267L121.234,401.5L230.47,510.735C238.868,511.567,247.383,512,256,512
	C379.328,512,482.277,424.787,506.564,308.673z"/>
<path style="fill:#FCBF29;" d="M213.843,100.267l27.375,55.358h29.565l27.375-55.358H213.843z"/>
<polygon style="fill:#FE9923;" points="270.782,155.625 256,155.625 256,100.267 298.157,100.267 "/>
<path style="fill:#BF6015;" d="M283.375,137.375h-54.75c-15.148,0-27.375,12.227-27.375,27.375
	c0,15.147,12.227,27.375,27.375,27.375h54.75c15.148,0,27.375-12.228,27.375-27.375C310.75,149.602,298.523,137.375,283.375,137.375
	z"/>
<path style="fill:#994C10;" d="M310.75,164.75c0,15.147-12.227,27.375-27.375,27.375H256v-54.75h27.375
	C298.523,137.375,310.75,149.602,310.75,164.75z"/>
<path style="fill:#FCBF29;" d="M137.375,349.418h0.178H137.375z M383.75,343.66v-41.427c0-70.445-57.305-128.358-127.75-128.358
	s-127.75,57.914-127.75,128.358v41.427c-11.132,6.388-18.25,18.433-18.25,31.573c0,20.075,16.425,36.5,36.5,36.5h219
	c20.075,0,36.5-16.425,36.5-36.5C402,362.093,394.882,350.048,383.75,343.66z"/>
<path style="fill:#FE9923;" d="M402,375.233c0,20.075-16.425,36.5-36.5,36.5H256V173.875c70.445,0,127.75,57.914,127.75,128.358
	v41.427C394.882,350.048,402,362.093,402,375.233z"/>
<polygon style="fill:#3C3A41;" points="237.75,375.233 183,356.983 164.75,283.983 219.5,229.233 270.015,303.98 "/>
<polygon style="fill:#57555C;" points="310.75,247.483 286.843,293.108 256,310.263 237.75,320.483 219.5,229.233 256,236.533 "/>
<polygon style="fill:#2B292C;" points="347.25,338.733 256,369.211 237.75,375.233 237.75,320.483 310.75,247.483 "/>
<g>
</g>
<g>
</g>
<g>
</g>
<g>
</g>
<g>
</g>
<g>
</g>
<g>
</g>
<g>
</g>
<g>
</g>
<g>
</g>
<g>
</g>
<g>
</g>
<g>
</g>
<g>
</g>
<g>
</g>
</svg>
