<?xml version="1.0" encoding="iso-8859-1"?>
<!-- Generator: Adobe Illustrator 19.0.0, SVG Export Plug-In . SVG Version: 6.00 Build 0)  -->
<svg version="1.1" id="Capa_1" xmlns="http://www.w3.org/2000/svg" xmlns:xlink="http://www.w3.org/1999/xlink" x="0px" y="0px"
	 viewBox="0 0 512 512" style="enable-background:new 0 0 512 512;" xml:space="preserve">
<circle style="fill:#FC4629;" cx="256" cy="256" r="256"/>
<path style="fill:#AA0031;" d="M111,351.917l159.656,159.656c97.422-5.5,180.281-65.462,218.598-149.937L401,273.385v-0.007
	L111,351.917z"/>
<path style="fill:#FEDB41;" d="M315.037,187.981l-50.541-4.543l12.441-33.557l-35.017-35.017l-20.792,3.468
	c-13.731,2.282-26.94,6.662-39.27,13.001l-7.202,3.709l3.36,7.376c1.012,2.207,1.518,4.572,1.518,7.036
	c0,9.367-7.625,16.992-16.992,16.992c-3.767,0-7.318-1.203-10.288-3.468l-6.438-4.928l-5.219,6.206
	c-14.47,17.183-25.018,37.934-29.597,61.663l136.504,39.326L401,273.378L315.037,187.981z"/>
<path style="fill:#FCBF29;" d="M395.333,320.339l5.667-2v-44.961l-290-47.459v125.998l50.821,9.425l0.78-9.392
	c0.714-8.737,8.156-15.582,16.934-15.582c9.367,0,16.992,7.625,16.992,16.992c0,1.643-0.232,3.269-0.697,4.812l-2.804,9.442
	l90.177,12.835l32.27-27.09l28.32,35.713L401,397.136v-42.738l-5.667-2c-3.941-1.394-7.227-4.19-9.243-7.866
	c-1.386-2.522-2.083-5.269-2.083-8.164C384.008,329.183,388.563,322.737,395.333,320.339z"/>
<g>
	<path style="fill:#FE9923;" d="M256,336.369c-14.055,0-25.488-11.433-25.488-25.488s11.433-25.488,25.488-25.488
		c14.055,0,25.488,11.433,25.488,25.488S270.055,336.369,256,336.369z"/>
	<path style="fill:#FE9923;" d="M315.473,336.369c-13.74,0-26.044,8.189-31.354,20.867c-3.131,7.472-3.22,15.459-0.916,23.215
		l60.59,8.624c3.564-5.374,5.665-11.801,5.665-18.721C349.457,351.61,334.216,336.369,315.473,336.369z"/>
	<path style="fill:#FE9923;" d="M179.535,268.4c-18.743,0-33.984-15.242-33.984-33.984s15.242-33.984,33.984-33.984
		s33.984,15.242,33.984,33.984S198.278,268.4,179.535,268.4z"/>
</g>
<path style="fill:#FEA832;" d="M247.504,183.439c0,18.743,15.242,33.984,33.984,33.984c13.01,0,24.683-7.243,30.466-18.909
	c1.668-3.366,2.603-6.919,3.082-10.533l-38.1-38.1c-3.611,0.481-7.159,1.421-10.525,3.091
	C254.747,158.755,247.504,170.429,247.504,183.439z"/>
<g>
</g>
<g>
</g>
<g>
</g>
<g>
</g>
<g>
</g>
<g>
</g>
<g>
</g>
<g>
</g>
<g>
</g>
<g>
</g>
<g>
</g>
<g>
</g>
<g>
</g>
<g>
</g>
<g>
</g>
</svg>
