<?xml version="1.0" encoding="iso-8859-1"?>
<!-- Generator: Adobe Illustrator 19.0.0, SVG Export Plug-In . SVG Version: 6.00 Build 0)  -->
<svg version="1.1" id="Capa_1" xmlns="http://www.w3.org/2000/svg" xmlns:xlink="http://www.w3.org/1999/xlink" x="0px" y="0px"
	 viewBox="0 0 512 512" style="enable-background:new 0 0 512 512;" xml:space="preserve">
<circle style="fill:#17ACE8;" cx="256" cy="256" r="256"/>
<path style="fill:#136EF1;" d="M512,256c0-2.124-0.029-4.24-0.08-6.351L351.4,89.129L99.456,294.322l20.13,98.091L238.57,511.397
	C244.332,511.785,250.141,512,256,512C397.385,512,512,397.385,512,256z"/>
<g>
	<path style="fill:#2B292C;" d="M329.959,210.629l28.588,28.588c3.947,3.947,10.347,3.947,14.294,0l0,0
		c3.947-3.947,3.947-10.347,0-14.294l-28.588-28.588L329.959,210.629z"/>
	<path style="fill:#2B292C;" d="M301.371,239.217l28.588,28.588c3.947,3.947,10.347,3.947,14.294,0l0,0
		c3.947-3.947,3.947-10.347,0-14.294l-28.588-28.588L301.371,239.217z"/>
	<path style="fill:#2B292C;" d="M358.547,182.041l28.588,28.588c3.947,3.947,10.347,3.947,14.294,0l0,0
		c3.947-3.947,3.947-10.347,0-14.294l-28.588-28.588L358.547,182.041z"/>
	<path style="fill:#2B292C;" d="M387.135,153.453l28.588,28.588c4.003,4.003,10.292,4.002,14.294,0L422.87,160.6l-21.441-21.441
		L387.135,153.453z"/>
</g>
<g>
	<path style="fill:#3C3A41;" d="M301.371,182.041l-28.588-28.588c-3.947-3.947-3.947-10.347,0-14.294l0,0
		c3.947-3.947,10.347-3.947,14.294,0l28.588,28.588L301.371,182.041z"/>
	<path style="fill:#3C3A41;" d="M272.783,210.629l-2.96-2.96l-25.628-25.628c-3.947-3.947-3.947-10.347,0-14.294l0,0
		c3.947-3.947,10.347-3.947,14.294,0l28.588,28.588L272.783,210.629z"/>
	<path style="fill:#3C3A41;" d="M329.959,153.453l-28.588-28.588c-3.947-3.947-3.947-10.347,0-14.294l0,0
		c3.947-3.947,10.347-3.947,14.294,0l28.588,28.588L329.959,153.453z"/>
	<path style="fill:#3C3A41;" d="M358.547,124.865l-28.588-28.588c-4.003-4.003-4.002-10.292,0-14.294L351.4,89.13l21.441,21.441
		L358.547,124.865z"/>
</g>
<path style="fill:#57555C;" d="M334.247,79.41c-11.149-4.574-23.299-6.433-35.734-4.86c-22.442,2.716-42.025,15.438-53.604,35.021
	l-36.45,65.324v28.588h28.588L351.4,89.13C345.968,85.127,340.394,81.839,334.247,79.41z"/>
<path style="fill:#3C3A41;" d="M402.43,267.091l-65.324,36.45h-28.588v-28.588L422.87,160.6c4.003,5.432,7.29,11.007,9.72,17.153
	c4.574,11.149,6.432,23.298,4.86,35.734C434.735,235.929,422.013,255.512,402.43,267.091z"/>
<path style="fill:#57555C;" d="M255.38,385.266l-7.147,7.147c-35.449,35.449-93.197,35.449-128.646,0s-35.449-93.198,0-128.646
	l7.147-7.147h28.588v28.588l-7.147,7.147c-19.726,19.726-19.726,51.744,0,71.47s51.744,19.726,71.47,0l7.147-7.147h28.588V385.266z"
	/>
<path style="fill:#3C3A41;" d="M255.38,385.266l-7.147,7.147c-35.449,35.449-93.197,35.449-128.646,0l28.588-28.588
	c19.726,19.726,51.744,19.726,71.47,0l7.147-7.147h28.588V385.266z"/>
<path style="fill:#DFCCBF;" d="M308.518,274.952c-1.934,1.934-85.44,85.44-81.726,81.726l28.588,28.588
	c2.552-2.552,83.313-83.313,81.726-81.726L308.518,274.952z"/>
<path style="fill:#EFE6DE;" d="M208.46,174.894c-1.934,1.934-85.44,85.44-81.726,81.726l28.588,28.588
	c2.552-2.552,83.313-83.313,81.726-81.726L208.46,174.894z"/>
<g>
</g>
<g>
</g>
<g>
</g>
<g>
</g>
<g>
</g>
<g>
</g>
<g>
</g>
<g>
</g>
<g>
</g>
<g>
</g>
<g>
</g>
<g>
</g>
<g>
</g>
<g>
</g>
<g>
</g>
</svg>
