<?xml version="1.0" encoding="iso-8859-1"?>
<!-- Generator: Adobe Illustrator 19.0.0, SVG Export Plug-In . SVG Version: 6.00 Build 0)  -->
<svg version="1.1" id="Capa_1" xmlns="http://www.w3.org/2000/svg" xmlns:xlink="http://www.w3.org/1999/xlink" x="0px" y="0px"
	 viewBox="0 0 512 512" style="enable-background:new 0 0 512 512;" xml:space="preserve">
<circle style="fill:#17ACE8;" cx="256" cy="256" r="256"/>
<path style="fill:#136EF1;" d="M507.519,303.837L392.136,188.454l-7.167-5.29l-53-53.406L242,197.068l-71.272-67.311l-11.342-11.312
	L113,399l111.014,111.014C234.493,511.32,245.167,512,256,512C381.034,512,485.113,422.356,507.519,303.837z"/>
<rect x="365.48" y="214.1" style="fill:#FEDBAB;" width="16.758" height="184.9"/>
<rect x="373.86" y="214.1" style="fill:#FEC478;" width="8.379" height="184.9"/>
<polygon style="fill:#57555C;" points="331.969,129.758 331.969,230.863 315.211,247.621 130.316,247.621 113,230.863 113,129.758 
	"/>
<polygon style="fill:#3C3A41;" points="331.969,129.758 331.969,230.863 315.211,247.621 222.484,247.621 222.484,129.758 "/>
<rect x="130.32" y="146.52" style="fill:#BF6015;" width="184.9" height="101.11"/>
<rect x="222.48" y="146.52" style="fill:#994C10;" width="92.73" height="101.11"/>
<path style="fill:#FEDBAB;" d="M155.453,138.137v101.105c0,4.692-3.686,8.379-8.379,8.379s-8.379-3.687-8.379-8.379V138.137
	c0-4.693,3.686-8.379,8.379-8.379S155.453,133.444,155.453,138.137z"/>
<path style="fill:#FEC478;" d="M155.453,138.137v101.105c0,4.692-3.686,8.379-8.379,8.379V129.758
	C151.767,129.758,155.453,133.444,155.453,138.137z"/>
<path style="fill:#FC4629;" d="M163.832,129.758c0,9.217-7.541,16.758-16.758,16.758s-16.758-7.541-16.758-16.758
	S137.858,113,147.074,113S163.832,120.541,163.832,129.758z"/>
<path style="fill:#FF2615;" d="M163.832,129.758c0,9.217-7.541,16.758-16.758,16.758V113
	C156.291,113,163.832,120.541,163.832,129.758z"/>
<path style="fill:#FEDBAB;" d="M188.969,188.41V256c0,4.692-3.686,8.379-8.379,8.379s-8.379-3.687-8.379-8.379v-67.59
	c0-4.693,3.686-8.379,8.379-8.379S188.969,183.717,188.969,188.41z"/>
<path style="fill:#FEC478;" d="M188.969,188.41V256c0,4.692-3.686,8.379-8.379,8.379v-84.348
	C185.283,180.031,188.969,183.717,188.969,188.41z"/>
<path style="fill:#FC4629;" d="M197.348,180.031c0,9.217-7.541,16.758-16.758,16.758s-16.758-7.541-16.758-16.758
	s7.541-16.758,16.758-16.758S197.348,170.815,197.348,180.031z"/>
<path style="fill:#FF2615;" d="M197.348,180.031c0,9.217-7.541,16.758-16.758,16.758v-33.516
	C189.806,163.273,197.348,170.815,197.348,180.031z"/>
<path style="fill:#FEDBAB;" d="M222.484,188.41V256c0,4.692-3.686,8.379-8.379,8.379s-8.379-3.687-8.379-8.379v-67.59
	c0-4.693,3.686-8.379,8.379-8.379S222.484,183.717,222.484,188.41z"/>
<path style="fill:#FEC478;" d="M222.484,188.41V256c0,4.692-3.686,8.379-8.379,8.379v-84.348
	C218.798,180.031,222.484,183.717,222.484,188.41z"/>
<path style="fill:#FC4629;" d="M230.863,180.031c0,9.217-7.541,16.758-16.758,16.758s-16.758-7.541-16.758-16.758
	s7.541-16.758,16.758-16.758S230.863,170.815,230.863,180.031z"/>
<path style="fill:#FF2615;" d="M230.863,180.031c0,9.217-7.541,16.758-16.758,16.758v-33.516
	C223.322,163.273,230.863,170.815,230.863,180.031z"/>
<path style="fill:#FEDBAB;" d="M256,188.41V256c0,4.692-3.686,8.379-8.379,8.379s-8.379-3.687-8.379-8.379v-67.59
	c0-4.693,3.686-8.379,8.379-8.379S256,183.717,256,188.41z"/>
<path style="fill:#FEC478;" d="M256,188.41V256c0,4.692-3.686,8.379-8.379,8.379v-84.348C252.314,180.031,256,183.717,256,188.41z"
	/>
<path style="fill:#FC4629;" d="M264.379,180.031c0,9.217-7.541,16.758-16.758,16.758c-9.217,0-16.758-7.541-16.758-16.758
	s7.541-16.758,16.758-16.758C256.838,163.273,264.379,170.815,264.379,180.031z"/>
<path style="fill:#FF2615;" d="M264.379,180.031c0,9.217-7.541,16.758-16.758,16.758v-33.516
	C256.838,163.273,264.379,170.815,264.379,180.031z"/>
<path style="fill:#FEDBAB;" d="M289.516,188.41V256c0,4.692-3.686,8.379-8.379,8.379s-8.379-3.687-8.379-8.379v-67.59
	c0-4.693,3.686-8.379,8.379-8.379S289.516,183.717,289.516,188.41z"/>
<path style="fill:#FEC478;" d="M289.516,188.41V256c0,4.692-3.686,8.379-8.379,8.379v-84.348
	C285.829,180.031,289.516,183.717,289.516,188.41z"/>
<path style="fill:#FC4629;" d="M297.895,180.031c0,9.217-7.541,16.758-16.758,16.758s-16.758-7.541-16.758-16.758
	s7.541-16.758,16.758-16.758S297.895,170.815,297.895,180.031z"/>
<path style="fill:#FF2615;" d="M297.895,180.031c0,9.217-7.541,16.758-16.758,16.758v-33.516
	C290.353,163.273,297.895,170.815,297.895,180.031z"/>
<path style="fill:#FC4629;" d="M113,230.863V399h218.969V230.863H113z"/>
<rect x="222.48" y="230.86" style="fill:#FF2615;" width="109.48" height="168.14"/>
<path style="fill:#FEDB41;" d="M253.151,318.004c0-0.168,0-0.335-0.168-0.503c-0.168-0.502-0.503-1.173-0.67-1.341
	c-0.168-0.502-0.503-1.005-0.839-1.34l-28.991-50.609l-30.667,53.625c-1.843,4.357-2.849,8.881-2.849,13.574
	c0,18.433,15.082,33.516,33.516,33.516S256,349.843,256,331.41C256,326.717,254.995,322.194,253.151,318.004z"/>
<path style="fill:#FCBF29;" d="M253.151,318.004c1.843,4.189,2.849,8.713,2.849,13.406c0,18.433-15.082,33.516-33.516,33.516
	V264.211l28.991,50.609c0.335,0.334,0.671,0.838,0.839,1.34c0.167,0.168,0.502,0.839,0.67,1.341
	C253.151,317.669,253.151,317.836,253.151,318.004z"/>
<path style="fill:#FC4629;" d="M373.863,180.59c-13.909,0-25.137,11.227-25.137,25.137c0,13.908,11.227,25.137,25.137,25.137
	S399,219.635,399,205.727C399,191.817,387.773,180.59,373.863,180.59z"/>
<path style="fill:#FF2615;" d="M399,205.727c0,13.908-11.227,25.137-25.137,25.137V180.59C387.773,180.59,399,191.817,399,205.727z"
	/>
<g>
</g>
<g>
</g>
<g>
</g>
<g>
</g>
<g>
</g>
<g>
</g>
<g>
</g>
<g>
</g>
<g>
</g>
<g>
</g>
<g>
</g>
<g>
</g>
<g>
</g>
<g>
</g>
<g>
</g>
</svg>
