<?xml version="1.0" encoding="iso-8859-1"?>
<!-- Generator: Adobe Illustrator 19.0.0, SVG Export Plug-In . SVG Version: 6.00 Build 0)  -->
<svg version="1.1" id="Capa_1" xmlns="http://www.w3.org/2000/svg" xmlns:xlink="http://www.w3.org/1999/xlink" x="0px" y="0px"
	 viewBox="0 0 512 512" style="enable-background:new 0 0 512 512;" xml:space="preserve">
<circle style="fill:#BF6015;" cx="256" cy="256" r="256"/>
<path style="fill:#713708;" d="M512,256c0-7.027-0.295-13.985-0.851-20.869L400,123.982L162.892,337.176l-41.048,5.25v47.73
	l121.532,121.532C247.559,511.891,251.767,512,256,512C397.385,512,512,397.385,512,256z"/>
<path style="fill:#57555C;" d="M400,123.982c-2.025,1.856-31.556,31.555-29.869,29.699c-3.374,3.375-8.606,3.375-11.812,0
	c-3.375-3.206-3.375-8.438,0-11.813c1.856-2.025,29.7-29.868,29.7-29.868l5.906,6.076L400,123.982z"/>
<path style="fill:#3C3A41;" d="M400,123.982c-2.025,1.856-31.556,31.555-29.869,29.699c-3.374,3.375-8.606,3.375-11.812,0
	l35.606-35.605L400,123.982z"/>
<path style="fill:#FC4629;" d="M274.71,237.29c-13.125-13.125-34.604-13.126-47.73,0c-13.125,13.125-13.125,34.604,0,47.73
	c13.125,13.125,34.604,13.125,47.73,0C287.836,271.894,287.835,250.416,274.71,237.29z"/>
<path style="fill:#FF2615;" d="M226.98,285.02l47.73-47.73c13.125,13.125,13.126,34.604,0,47.73
	C261.584,298.146,240.105,298.146,226.98,285.02z"/>
<path style="fill:#FEDB41;" d="M209.081,243.257l-32.416,32.416l59.662,59.662l32.416-32.416L209.081,243.257z"/>
<rect x="216.519" y="281.286" transform="matrix(0.7071 0.7071 -0.7071 0.7071 284.7025 -78.9177)" style="fill:#FCBF29;" width="42.19" height="45.843"/>
<path style="fill:#57555C;" d="M169.574,390.156c-13.125,13.125-34.604,13.125-47.73,0c-13.125-13.125-13.125-34.604,0-47.73
	c11.097-11.097,28.042-12.768,41.048-5.25l7.807-7.807c3.341-3.341,8.591-3.341,11.932,0s3.341,8.591,0,11.932l-19.024,19.024
	l-5.966-5.966c-6.563-6.563-17.302-6.563-23.865,0s-6.563,17.302,0,23.865s17.302,6.563,23.865,0L169.574,390.156z"/>
<path style="fill:#FC4629;" d="M346.304,165.696c-13.125-13.125-34.604-13.126-47.73,0c-13.125,13.125-13.125,34.604,0,47.73
	s34.604,13.125,47.73,0C359.43,200.3,359.429,178.821,346.304,165.696z"/>
<g>
	<path style="fill:#3C3A41;" d="M163.608,360.325l-5.966-5.966l24.99-24.99c3.341,3.341,3.341,8.591,0,11.932L163.608,360.325z"/>
	<path style="fill:#3C3A41;" d="M169.574,390.156c-13.125,13.125-34.604,13.125-47.73,0l11.932-11.932
		c6.563,6.563,17.302,6.563,23.865,0L169.574,390.156z"/>
</g>
<path style="fill:#FF2615;" d="M298.574,213.426l47.73-47.73c13.125,13.125,13.126,34.604,0,47.73
	C333.179,226.551,311.7,226.551,298.574,213.426z"/>
<path style="fill:#6ECD24;" d="M268.743,159.73l-5.966,5.966c-23.03,23.029-23.03,60.497,0,83.527
	c23.029,23.029,60.497,23.029,83.527,0l5.966-5.966L268.743,159.73z"/>
<path style="fill:#66BD21;" d="M352.27,243.257l-5.966,5.966c-23.029,23.029-60.497,23.029-83.527,0l47.73-47.73L352.27,243.257z"/>
<path style="fill:#FEDB41;" d="M340.338,112l-35.797,35.797l59.662,59.662L400,171.662L340.338,112z"/>
<rect x="346.092" y="149.324" transform="matrix(-0.7071 -0.7071 0.7071 -0.7071 503.3406 557.7629)" style="fill:#FCBF29;" width="42.19" height="50.625"/>
<path style="fill:#6ECD24;" d="M176.665,251.808l-5.966,5.966c-23.029,23.03-23.029,60.497,0,83.527
	c23.029,23.029,60.497,23.029,83.527,0l5.966-5.966L176.665,251.808z"/>
<path style="fill:#66BD21;" d="M260.192,335.335l-5.966,5.966c-23.029,23.029-60.497,23.029-83.527,0l47.73-47.73L260.192,335.335z"
	/>
<g>
</g>
<g>
</g>
<g>
</g>
<g>
</g>
<g>
</g>
<g>
</g>
<g>
</g>
<g>
</g>
<g>
</g>
<g>
</g>
<g>
</g>
<g>
</g>
<g>
</g>
<g>
</g>
<g>
</g>
</svg>
