<?xml version="1.0" encoding="iso-8859-1"?>
<!-- Generator: Adobe Illustrator 19.0.0, SVG Export Plug-In . SVG Version: 6.00 Build 0)  -->
<svg version="1.1" id="Capa_1" xmlns="http://www.w3.org/2000/svg" xmlns:xlink="http://www.w3.org/1999/xlink" x="0px" y="0px"
	 viewBox="0 0 512 512" style="enable-background:new 0 0 512 512;" xml:space="preserve">
<circle style="fill:#32D736;" cx="256" cy="256" r="256"/>
<path style="fill:#0CA656;" d="M512,256c0-4.05-0.105-8.076-0.292-12.08L425,157.212l-70.212-42.048L200.48,185.971L115,355
	l41.911,70.3l86.385,86.384C247.505,511.89,251.74,512,256,512C397.385,512,512,397.385,512,256z"/>
<path style="fill:#57555C;" d="M425,157.212c-4.363,4.363-41.452,41.453-39.271,39.072c-3.967,3.967-10.116,3.967-14.083,0
	c-3.768-3.768-3.768-10.114,0-13.883l25.189-25.189l-42.048-42.048c-1.786,1.784-22.611,22.611-25.189,25.189l-0.199,0.197
	c-3.768,3.571-9.917,3.571-13.685-0.197c-3.966-3.967-3.966-10.115,0-14.083c3.968-4.165,39.074-39.27,39.074-39.27L425,157.212z"/>
<path style="fill:#3C3A41;" d="M425,157.212c-4.363,4.363-41.452,41.453-39.271,39.072c-3.967,3.967-10.116,3.967-14.083,0
	c-3.768-3.768-3.768-10.114,0-13.883l25.189-25.189l-21.024-21.024l14.081-14.083L425,157.212z"/>
<path style="fill:#57555C;" d="M197.506,384.509c-3.967,4.164-40.594,40.792-40.594,40.792l-35.105-35.106L86.7,355.089
	c4.164-4.166,40.792-40.594,40.792-40.594c3.967-3.967,10.115-3.967,14.083,0c3.768,3.768,3.768,10.115,0,13.884
	c-1.786,1.784-24.132,24.132-26.71,26.71l42.048,42.048l26.71-26.71c3.768-3.768,10.115-3.768,13.884,0
	C201.471,374.393,201.471,380.542,197.506,384.509z"/>
<path style="fill:#3C3A41;" d="M197.506,370.426c3.966,3.967,3.966,10.116,0,14.083c-3.967,4.164-40.594,40.792-40.594,40.792
	l-35.105-35.106l14.081-14.081l21.024,21.024l26.71-26.71C187.39,366.658,193.737,366.658,197.506,370.426z"/>
<path style="fill:#17ACE8;" d="M361.73,150.27c-26.974-26.975-64.063-43.635-105.12-43.635
	c-82.113,0-148.754,66.642-148.754,148.754c0,41.056,16.661,78.146,43.635,105.119c26.974,26.974,64.063,43.635,105.12,43.635
	c82.113,0,148.754-66.642,148.754-148.754C405.365,214.333,388.704,177.244,361.73,150.27z"/>
<path style="fill:#1689FC;" d="M405.365,255.39c0,82.113-66.642,148.754-148.754,148.754c-41.056,0-78.146-16.661-105.12-43.635
	L361.73,150.27C388.704,177.244,405.365,214.333,405.365,255.39z"/>
<path style="fill:#57555C;" d="M333.764,178.236c-19.834-19.635-47.006-31.932-77.154-31.932
	c-60.097,0-109.087,48.989-109.087,109.087c0,30.147,12.297,57.32,31.932,77.154c19.834,19.635,47.006,31.932,77.154,31.932
	c60.097,0,109.087-48.99,109.087-109.087C365.697,225.242,353.4,198.069,333.764,178.236z"/>
<path style="fill:#3C3A41;" d="M365.697,255.39c0,60.096-48.989,109.087-109.087,109.087c-30.148,0-57.32-12.297-77.154-31.932
	l154.308-154.308C353.4,198.069,365.697,225.242,365.697,255.39z"/>
<path style="fill:#FC4629;" d="M319.682,192.318c-16.264-16.264-38.478-26.181-63.072-26.181c-49.188,0-89.253,40.064-89.253,89.253
	c0,24.594,9.917,46.808,26.181,63.072s38.478,26.181,63.072,26.181c49.188,0,89.253-40.065,89.253-89.253
	C345.863,230.796,335.946,208.582,319.682,192.318z"/>
<path style="fill:#FF2615;" d="M319.682,192.318c16.264,16.264,26.181,38.478,26.181,63.072c0,49.188-40.065,89.253-89.253,89.253
	c-24.594,0-46.808-9.917-63.072-26.181L319.682,192.318z"/>
<g>
	<path style="fill:#57555C;" d="M207.025,176.054v158.671c0,5.354-4.363,9.917-9.917,9.917s-9.917-4.563-9.917-9.917V176.054
		c0-5.356,4.363-9.917,9.917-9.917S207.025,170.699,207.025,176.054z"/>
	<path style="fill:#57555C;" d="M246.693,158.203v194.372c0,5.554-4.363,9.917-9.917,9.917s-9.917-4.363-9.917-9.917V158.203
		c0-5.553,4.363-9.917,9.917-9.917S246.693,152.65,246.693,158.203z"/>
	<path style="fill:#57555C;" d="M286.361,158.203v194.372c0,5.554-4.363,9.917-9.917,9.917s-9.917-4.363-9.917-9.917V158.203
		c0-5.553,4.363-9.917,9.917-9.917S286.361,152.65,286.361,158.203z"/>
	<path style="fill:#57555C;" d="M326.029,176.054v158.671c0,5.354-4.363,9.917-9.917,9.917s-9.917-4.563-9.917-9.917V176.054
		c0-5.356,4.363-9.917,9.917-9.917S326.029,170.699,326.029,176.054z"/>
</g>
<g>
	<path style="fill:#3C3A41;" d="M187.192,324.808l19.834-19.834v29.751c0,5.354-4.363,9.917-9.917,9.917s-9.917-4.563-9.917-9.917
		L187.192,324.808L187.192,324.808z"/>
	<path style="fill:#3C3A41;" d="M226.859,285.141l19.834-19.834v87.268c0,5.554-4.363,9.917-9.917,9.917s-9.917-4.363-9.917-9.917
		L226.859,285.141L226.859,285.141z"/>
	<path style="fill:#3C3A41;" d="M266.527,245.473l19.834-19.834v126.936c0,5.554-4.363,9.917-9.917,9.917s-9.917-4.363-9.917-9.917
		L266.527,245.473L266.527,245.473z"/>
	<path style="fill:#3C3A41;" d="M326.029,185.971v148.754c0,5.354-4.363,9.917-9.917,9.917s-9.917-4.563-9.917-9.917v-128.92
		L326.029,185.971z"/>
</g>
<g>
</g>
<g>
</g>
<g>
</g>
<g>
</g>
<g>
</g>
<g>
</g>
<g>
</g>
<g>
</g>
<g>
</g>
<g>
</g>
<g>
</g>
<g>
</g>
<g>
</g>
<g>
</g>
<g>
</g>
</svg>
