<?xml version="1.0" encoding="iso-8859-1"?>
<!-- Generator: Adobe Illustrator 19.0.0, SVG Export Plug-In . SVG Version: 6.00 Build 0)  -->
<svg version="1.1" id="Capa_1" xmlns="http://www.w3.org/2000/svg" xmlns:xlink="http://www.w3.org/1999/xlink" x="0px" y="0px"
	 viewBox="0 0 512 512" style="enable-background:new 0 0 512 512;" xml:space="preserve">
<circle style="fill:#32D736;" cx="256" cy="256" r="256"/>
<path style="fill:#0CA656;" d="M503.292,322.374l-93.729-93.729l-52.324-23.263l-64.89-64.885l-181.96,241.071L240.33,511.509
	C245.515,511.822,250.736,512,256,512C374.427,512,474.054,431.578,503.292,322.374z"/>
<path style="fill:#994C0F;" d="M429,276.271v60.82c0,39.128-32.505,70.957-71.633,70.957H174.906
	c-50.278,0-91.906-40.953-91.906-91.23v-81.094c0-5.677,4.46-10.137,10.137-10.137l325.727,40.547
	C424.54,266.135,429,270.594,429,276.271z"/>
<path style="fill:#713708;" d="M429,276.271v60.82c0,39.128-32.505,70.957-71.633,70.957H256V245.861l162.863,20.273
	C424.54,266.135,429,270.594,429,276.271z"/>
<path style="fill:#BF6015;" d="M428.797,269.581c-3.446-36.086-36.357-64.266-74.471-64.266h-20.881
	c-4.662,0-8.717-3.042-9.731-7.704c-8.92-37.708-34.465-67.511-67.714-82.513c-20.273-9.325-42.98-13.177-66.497-10.137
	c-27.976,3.446-53.116,17.233-71.768,37.304c-18.651,20.273-31.693,46.832-34.329,76.228c-0.203,3.649-0.406,7.501-0.406,11.15
	v40.75c0,55.346,39.803,97.109,91.906,97.109h162.188c49.467,0,91.096-40.344,91.906-89.608
	C429,275.055,429,272.419,428.797,269.581z"/>
<path style="fill:#994C10;" d="M429,277.894c-0.81,49.264-42.439,89.608-91.906,89.608H256V115.097
	c33.249,15.002,58.793,44.805,67.714,82.513c1.013,4.662,5.068,7.704,9.731,7.704h20.881c38.114,0,71.025,28.18,74.471,64.266
	C429,272.419,429,275.055,429,277.894z"/>
<path style="fill:#994C0F;" d="M387.574,273.23c-1.419-15.407-16.016-27.369-33.249-27.369h-20.881
	c-23.518,0-43.791-16.016-49.264-38.925c-4.258-18.247-14.395-33.858-28.18-44.805c-16.421-13.178-38.114-19.868-61.429-17.029
	c-37.1,4.865-66.496,37.099-69.942,76.836c-0.203,2.636-0.406,5.068-0.406,7.704v40.75c0,32.64,21.287,56.562,50.684,56.562h162.188
	c27.572,0,50.278-22.503,50.684-49.873C387.777,275.866,387.777,274.446,387.574,273.23z"/>
<path style="fill:#713708;" d="M387.777,277.082c-0.406,27.37-23.112,49.873-50.684,49.873H256V162.132
	c13.786,10.947,23.923,26.558,28.18,44.805c5.473,22.909,25.746,38.925,49.264,38.925h20.881c17.233,0,31.829,11.962,33.249,27.369
	C387.777,274.446,387.777,275.866,387.777,277.082z"/>
<path style="fill:#BF6015;" d="M354.326,266.135h-20.881c-33.046,0-61.429-22.503-68.93-54.536
	c-1.621-7.095-4.663-13.786-8.514-19.665c-10.947-16.624-29.6-27.167-50.684-27.167c-2.636,0-5.474,0.203-8.312,0.609
	c-27.573,3.446-49.67,27.976-52.306,58.386c-0.203,1.825-0.203,3.852-0.203,5.88v40.75c0,21.287,12.569,36.289,30.41,36.289h162.188
	c16.421,0,30.207-13.583,30.41-30.004C367.098,270.797,361.625,266.135,354.326,266.135z"/>
<path style="fill:#994C10;" d="M367.504,276.677c-0.203,16.421-13.989,30.004-30.41,30.004H256V191.935
	c3.852,5.879,6.894,12.569,8.514,19.665c7.501,32.032,35.884,54.536,68.93,54.536h20.881
	C361.625,266.135,367.098,270.797,367.504,276.677z"/>
<g>
	<path style="fill:#994C0F;" d="M174.906,326.955c-5.603,0-10.137-4.534-10.137-10.137V161.63c0-5.603,4.534-10.137,10.137-10.137
		s10.137,4.534,10.137,10.137v155.189C185.043,322.421,180.509,326.955,174.906,326.955z"/>
	<path style="fill:#994C0F;" d="M215.453,326.955c-5.603,0-10.137-4.534-10.137-10.137V155.344c0-5.603,4.534-10.137,10.137-10.137
		s10.137,4.534,10.137,10.137v161.475C225.59,322.421,221.056,326.955,215.453,326.955z"/>
	<path style="fill:#994C0F;" d="M266.137,175.715v141.104c0,5.677-4.46,10.137-10.137,10.137s-10.137-4.46-10.137-10.137V175.715
		c0-5.473,4.46-10.137,10.137-10.137C261.677,165.578,266.137,170.242,266.137,175.715z"/>
</g>
<g>
	<path style="fill:#713708;" d="M296.547,326.955c-5.603,0-10.137-4.534-10.137-10.137v-73.224c0-5.603,4.534-10.137,10.137-10.137
		s10.137,4.534,10.137,10.137v73.224C306.684,322.421,302.15,326.955,296.547,326.955z"/>
	<path style="fill:#713708;" d="M337.094,326.955c-5.603,0-10.137-4.534-10.137-10.137v-60.82c0-5.603,4.534-10.137,10.137-10.137
		s10.137,4.534,10.137,10.137v60.82C347.23,322.421,342.697,326.955,337.094,326.955z"/>
	<path style="fill:#713708;" d="M266.137,175.715v141.104c0,5.677-4.46,10.137-10.137,10.137V165.578
		C261.677,165.578,266.137,170.242,266.137,175.715z"/>
</g>
<g>
</g>
<g>
</g>
<g>
</g>
<g>
</g>
<g>
</g>
<g>
</g>
<g>
</g>
<g>
</g>
<g>
</g>
<g>
</g>
<g>
</g>
<g>
</g>
<g>
</g>
<g>
</g>
<g>
</g>
</svg>
