<?xml version="1.0" encoding="iso-8859-1"?>
<!-- Generator: Adobe Illustrator 19.0.0, SVG Export Plug-In . SVG Version: 6.00 Build 0)  -->
<svg version="1.1" id="Capa_1" xmlns="http://www.w3.org/2000/svg" xmlns:xlink="http://www.w3.org/1999/xlink" x="0px" y="0px"
	 viewBox="0 0 512 512" style="enable-background:new 0 0 512 512;" xml:space="preserve">
<circle style="fill:#FEDB41;" cx="256" cy="256" r="256"/>
<path style="fill:#FE9923;" d="M511.412,273.195L344,105.813l-33.798,54.155L256,105.813l-33.798,54.155L168,105.813l-0.11,212.376
	L124,406.187l104.32,104.32C237.414,511.484,246.646,512,256,512C391.605,512,502.564,406.56,511.412,273.195z"/>
<path style="fill:#17ACE8;" d="M388,212c0,62.48-41.888,104.778-44,106.187c-2.112-1.408-44-43.707-44-106.187
	c0-10.912,1.584-20.944,3.696-30.448h80.607C386.416,191.056,388,201.088,388,212z"/>
<path style="fill:#1689FC;" d="M388,212c0,62.48-41.888,104.778-44,106.187V181.552h40.304C386.416,191.056,388,201.088,388,212z"/>
<path style="fill:#EFE6DE;" d="M384.304,181.552C372.864,189.648,358.96,194.4,344,194.4s-28.864-4.752-40.304-12.848
	c1.407-6.512,3.168-12.673,5.28-18.305c6.16-17.071,14.608-31.151,21.471-40.832c7.04-9.68,12.849-15.899,13.552-16.602
	c1.584,1.232,22.704,23.115,35.024,57.434C381.136,168.88,382.896,175.04,384.304,181.552z"/>
<path style="fill:#DFCCBF;" d="M384.304,181.552C372.864,189.648,358.96,194.4,344,194.4v-88.587
	c1.584,1.232,22.704,23.115,35.024,57.434C381.136,168.88,382.896,175.04,384.304,181.552z"/>
<path style="fill:#1689FC;" d="M388,362.187v44l-44-35.2l-44,35.2v-44c0-24.288,19.712-44,44-44
	c12.144,0,23.232,4.928,31.152,12.848C383.071,338.955,388,350.043,388,362.187z"/>
<rect x="335.2" y="141.6" style="fill:#57555C;" width="17.6" height="17.6"/>
<path style="fill:#136EF1;" d="M388,362.187v44l-44-35.2v-52.8c12.144,0,23.232,4.928,31.152,12.848
	C383.071,338.955,388,350.043,388,362.187z"/>
<rect x="344" y="141.6" style="fill:#3C3A41;" width="8.8" height="17.6"/>
<path style="fill:#17ACE8;" d="M300,212c0,62.48-41.888,104.778-44,106.187c-2.112-1.408-44-43.707-44-106.187
	c0-10.912,1.584-20.944,3.696-30.448h80.607C298.416,191.056,300,201.088,300,212z"/>
<path style="fill:#1689FC;" d="M300,212c0,62.48-41.888,104.778-44,106.187V181.552h40.304C298.416,191.056,300,201.088,300,212z"/>
<path style="fill:#EFE6DE;" d="M296.304,181.552C284.864,189.648,270.96,194.4,256,194.4s-28.864-4.752-40.304-12.848
	c1.407-6.512,3.168-12.673,5.28-18.305c6.16-17.071,14.608-31.151,21.471-40.832c7.04-9.68,12.849-15.899,13.552-16.602
	c1.584,1.232,22.704,23.115,35.024,57.434C293.136,168.88,294.896,175.04,296.304,181.552z"/>
<path style="fill:#DFCCBF;" d="M296.304,181.552C284.864,189.648,270.96,194.4,256,194.4v-88.587
	c1.584,1.232,22.704,23.115,35.024,57.434C293.136,168.88,294.896,175.04,296.304,181.552z"/>
<path style="fill:#1689FC;" d="M300,362.187v44l-44-35.2l-44,35.2v-44c0-24.288,19.712-44,44-44
	c12.144,0,23.232,4.928,31.152,12.848C295.071,338.955,300,350.043,300,362.187z"/>
<rect x="247.2" y="141.6" style="fill:#57555C;" width="17.6" height="17.6"/>
<path style="fill:#136EF1;" d="M300,362.187v44l-44-35.2v-52.8c12.144,0,23.232,4.928,31.152,12.848
	C295.071,338.955,300,350.043,300,362.187z"/>
<rect x="256" y="141.6" style="fill:#3C3A41;" width="8.8" height="17.6"/>
<path style="fill:#17ACE8;" d="M212,212c0,62.48-41.888,104.778-44,106.187c-2.112-1.408-44-43.707-44-106.187
	c0-10.912,1.584-20.944,3.696-30.448h80.607C210.416,191.056,212,201.088,212,212z"/>
<path style="fill:#1689FC;" d="M212,212c0,62.48-41.888,104.778-44,106.187V181.552h40.304C210.416,191.056,212,201.088,212,212z"/>
<path style="fill:#EFE6DE;" d="M208.304,181.552C196.864,189.648,182.96,194.4,168,194.4s-28.864-4.752-40.304-12.848
	c1.407-6.512,3.168-12.673,5.28-18.305c6.16-17.071,14.608-31.151,21.471-40.832c7.04-9.68,12.849-15.899,13.552-16.602
	c1.584,1.232,22.704,23.115,35.024,57.434C205.136,168.88,206.896,175.04,208.304,181.552z"/>
<path style="fill:#DFCCBF;" d="M208.304,181.552C196.864,189.648,182.96,194.4,168,194.4v-88.587
	c1.584,1.232,22.704,23.115,35.024,57.434C205.136,168.88,206.896,175.04,208.304,181.552z"/>
<path style="fill:#1689FC;" d="M212,362.187v44l-44-35.2l-44,35.2v-44c0-24.288,19.712-44,44-44
	c12.144,0,23.232,4.928,31.152,12.848C207.071,338.955,212,350.043,212,362.187z"/>
<rect x="159.2" y="141.6" style="fill:#57555C;" width="17.6" height="17.6"/>
<path style="fill:#136EF1;" d="M212,362.187v44l-44-35.2v-52.8c12.144,0,23.232,4.928,31.152,12.848
	C207.071,338.955,212,350.043,212,362.187z"/>
<rect x="168" y="141.6" style="fill:#3C3A41;" width="8.8" height="17.6"/>
<g>
</g>
<g>
</g>
<g>
</g>
<g>
</g>
<g>
</g>
<g>
</g>
<g>
</g>
<g>
</g>
<g>
</g>
<g>
</g>
<g>
</g>
<g>
</g>
<g>
</g>
<g>
</g>
<g>
</g>
</svg>
