<?xml version="1.0" encoding="iso-8859-1"?>
<!-- Generator: Adobe Illustrator 19.0.0, SVG Export Plug-In . SVG Version: 6.00 Build 0)  -->
<svg version="1.1" id="Capa_1" xmlns="http://www.w3.org/2000/svg" xmlns:xlink="http://www.w3.org/1999/xlink" x="0px" y="0px"
	 viewBox="0 0 512 512" style="enable-background:new 0 0 512 512;" xml:space="preserve">
<circle style="fill:#BF6015;" cx="256" cy="256" r="256"/>
<path style="fill:#713708;" d="M512,256c0-5.506-0.194-10.966-0.537-16.386l-98.666-98.666L105.039,386.254l124.378,124.377
	C238.155,511.533,247.023,512,256,512C397.385,512,512,397.385,512,256z"/>
<polygon style="fill:#FD8822;" points="406.961,386.254 305.43,386.254 285.391,366.215 305.43,346.176 362.708,326.137 
	406.961,346.176 "/>
<rect x="285.39" y="205.9" style="fill:#E5741A;" width="121.57" height="140.27"/>
<path style="fill:#FD8822;" d="M376.902,125.746H275.371c-5.538,0-10.02,4.481-10.02,10.02l20.039,80.156
	c0,5.538,4.481,10.02,10.02,10.02h81.492c27.622,0,50.098-22.475,50.098-50.098S404.525,125.746,376.902,125.746z"/>
<path style="fill:#FEA832;" d="M275.371,125.746H135.098C107.444,125.746,85,148.19,85,175.844c0,15.83,7.615,30.659,20.039,40.078
	v170.332H305.43V215.922c12.424-9.419,20.039-24.248,20.039-40.078C325.469,148.19,303.025,125.746,275.371,125.746z"/>
<path style="fill:#FE9923;" d="M325.469,175.844c0,15.83-7.615,30.659-20.039,40.078v170.332H205.234V125.746h70.137
	C303.025,125.746,325.469,148.19,325.469,175.844z"/>
<path style="fill:#FEDBAB;" d="M275.371,145.785H135.098c-16.633,0-30.059,13.426-30.059,30.059c0,10.62,5.811,20.64,15.029,26.051
	l5.01,2.806v161.515h160.313V204.7l5.01-2.806c9.218-5.411,15.029-15.43,15.029-26.051
	C305.43,159.211,292.004,145.785,275.371,145.785z"/>
<path style="fill:#FEC478;" d="M305.43,175.844c0,10.62-5.811,20.64-15.029,26.051l-5.01,2.806v161.515h-80.156v-220.43h70.137
	C292.004,145.785,305.43,159.211,305.43,175.844z"/>
<rect x="165.163" y="207.62" transform="matrix(-0.7071 -0.7071 0.7071 -0.7071 132.2071 526.6815)" style="fill:#FEA832;" width="20.04" height="56.678"/>
<rect x="206.951" y="286.165" transform="matrix(-0.7071 0.7071 -0.7071 -0.7071 611.0286 339.0715)" style="fill:#FE9923;" width="56.678" height="19.837"/>
<polygon style="fill:#FEA832;" points="262.345,222.935 205.234,280.047 182.189,303.091 168.163,289.064 248.319,208.907 "/>
<polygon style="fill:#FE9923;" points="262.345,222.935 205.234,280.047 205.234,251.992 248.319,208.907 "/>
<g>
</g>
<g>
</g>
<g>
</g>
<g>
</g>
<g>
</g>
<g>
</g>
<g>
</g>
<g>
</g>
<g>
</g>
<g>
</g>
<g>
</g>
<g>
</g>
<g>
</g>
<g>
</g>
<g>
</g>
</svg>
