<?xml version="1.0" encoding="iso-8859-1"?>
<!-- Generator: Adobe Illustrator 19.0.0, SVG Export Plug-In . SVG Version: 6.00 Build 0)  -->
<svg version="1.1" id="Capa_1" xmlns="http://www.w3.org/2000/svg" xmlns:xlink="http://www.w3.org/1999/xlink" x="0px" y="0px"
	 viewBox="0 0 512 512" style="enable-background:new 0 0 512 512;" xml:space="preserve">
<circle style="fill:#BF6015;" cx="256" cy="256" r="256"/>
<path style="fill:#713708;" d="M512,256c0-8.481-0.423-16.863-1.229-25.133L402,122.096l-27.878,15.782l-141.791,26.374
	l24.648,24.129L126.735,385.313L253.39,511.967c0.87,0.009,1.737,0.033,2.61,0.033C397.385,512,512,397.385,512,256z"/>
<path style="fill:#66BD21;" d="M402,122.096c-8.144,8.144-23.132,23.137-27.877,27.877c-3.388,3.388-8.709,3.393-12.096,0
	c-3.388-3.382-3.393-8.709,0-12.096c8.138-8.144,23.132-23.132,27.877-27.877l6.045,6.051L402,122.096z"/>
<path style="fill:#0CA656;" d="M402,122.096c-8.144,8.144-23.132,23.137-27.877,27.877c-3.388,3.388-8.709,3.393-12.096,0
	l33.922-33.922L402,122.096z"/>
<path style="fill:#10BB67;" d="M209.486,382.893c-21.656,24.56-59.645,25.527-82.752,2.42c-23.228-23.228-22.14-61.096,2.42-82.752
	l158.224-141.333c3.388-3.146,8.831-2.782,12.098,0.725l50.571,50.571c3.507,3.267,3.871,8.71,0.725,12.098L209.486,382.893z"/>
<path style="fill:#0CA656;" d="M209.486,382.893c-21.656,24.56-59.645,25.527-82.752,2.42l198.028-198.075l25.285,25.285
	c3.507,3.267,3.871,8.71,0.725,12.098L209.486,382.893z"/>
<path style="fill:#6ECD24;" d="M377.268,246.277c27.826-31.213,26.374-78.879-3.146-108.399s-77.186-30.971-108.399-3.146
	l-33.392,29.52l54.465,10.889v50.063h50.063l10.889,54.465L377.268,246.277z"/>
<path style="fill:#66BD21;" d="M347.748,279.669l-10.889-54.465h-50.063l87.325-87.325c29.52,29.52,30.971,77.186,3.146,108.399
	L347.748,279.669z"/>
<g>
</g>
<g>
</g>
<g>
</g>
<g>
</g>
<g>
</g>
<g>
</g>
<g>
</g>
<g>
</g>
<g>
</g>
<g>
</g>
<g>
</g>
<g>
</g>
<g>
</g>
<g>
</g>
<g>
</g>
</svg>
