<?xml version="1.0" encoding="iso-8859-1"?>
<!-- Generator: Adobe Illustrator 19.0.0, SVG Export Plug-In . SVG Version: 6.00 Build 0)  -->
<svg version="1.1" id="Capa_1" xmlns="http://www.w3.org/2000/svg" xmlns:xlink="http://www.w3.org/1999/xlink" x="0px" y="0px"
	 viewBox="0 0 512 512" style="enable-background:new 0 0 512 512;" xml:space="preserve">
<circle style="fill:#BF6015;" cx="256" cy="256" r="256"/>
<path style="fill:#713708;" d="M283.248,510.556c124.559-13.18,222.46-115.679,228.452-242.25l-69.7-69.7l-19.055,4.948
	L303.952,84.565L170.225,391.864l55.117,55.128l-3.325,2.333L283.248,510.556z"/>
<path style="fill:#FEDB41;" d="M346.621,221.262v114.031H165.379V221.262h0.227c-2.266-54.373,13.14-106.026,40.779-135.026
	c14.726-15.405,32.17-23.109,49.615-23.109s34.889,7.703,49.615,23.109c27.639,28.999,43.046,80.653,40.779,135.026H346.621z"/>
<path style="fill:#FCBF29;" d="M346.621,221.262v114.031H256V63.127c17.445,0,34.889,7.703,49.615,23.109
	c27.639,28.999,43.046,80.653,40.779,135.026H346.621z"/>
<path style="fill:#FEA832;" d="M289.303,101.868C282.054,94.392,270.5,85.331,256,85.331s-26.054,9.061-33.303,16.538
	c-23.789,24.92-36.928,70.911-34.436,119.846v0.454l4.078,148.695h131.4v-148.47C326.231,172.779,313.092,126.789,289.303,101.868z"
	/>
<path style="fill:#FE9923;" d="M323.739,222.394v148.468H256V85.331c14.5,0,26.054,9.061,33.303,16.538
	C313.092,126.789,326.231,172.779,323.739,222.394z"/>
<g>
	<path style="fill:#FEDB41;" d="M326.457,119.313c0,6.343-4.983,11.328-11.328,11.328H196.87c-6.344,0-11.328-4.985-11.328-11.328
		c0-6.344,4.983-11.328,11.328-11.328h118.26C321.474,107.986,326.457,112.969,326.457,119.313z"/>
	<path style="fill:#FEDB41;" d="M342.09,164.624c0,6.343-4.983,11.328-11.328,11.328H181.238c-6.344,0-11.328-4.985-11.328-11.328
		c0-6.344,4.983-11.328,11.328-11.328h149.524C337.106,153.296,342.09,158.28,342.09,164.624z"/>
	<path style="fill:#FEDB41;" d="M346.621,209.934c0,6.343-4.983,11.328-11.328,11.328H176.707c-6.344,0-11.328-4.985-11.328-11.328
		c0-6.344,4.983-11.328,11.328-11.328h158.587C341.637,198.607,346.621,203.59,346.621,209.934z"/>
	<path style="fill:#FEDB41;" d="M267.328,74.003v249.963c0,6.343-4.983,11.328-11.328,11.328c-6.344,0-11.328-4.985-11.328-11.328
		V74.003c0-6.344,4.983-11.328,11.328-11.328C262.344,62.675,267.328,67.659,267.328,74.003z"/>
</g>
<g>
	<path style="fill:#FCBF29;" d="M315.13,130.641H256v-22.655h59.13c6.344,0,11.328,4.983,11.328,11.328
		C326.457,125.656,321.474,130.641,315.13,130.641z"/>
	<path style="fill:#FCBF29;" d="M330.762,175.951H256v-22.655h74.762c6.344,0,11.328,4.983,11.328,11.328
		C342.09,170.967,337.106,175.951,330.762,175.951z"/>
	<path style="fill:#FCBF29;" d="M346.621,209.934c0,6.343-4.983,11.328-11.328,11.328H256v-22.655h79.293
		C341.637,198.607,346.621,203.59,346.621,209.934z"/>
	<path style="fill:#FCBF29;" d="M267.328,74.003v249.963c0,6.343-4.983,11.328-11.328,11.328V62.675
		C262.344,62.675,267.328,67.659,267.328,74.003z"/>
</g>
<path style="fill:#6ECD24;" d="M391.931,198.607c-61.169,0-113.73,37.38-135.931,90.621
	c-22.202-53.241-74.762-90.621-135.931-90.621H70l32.624,32.624c18.577,18.577,28.773,43.044,28.773,69.325
	c0,55.958,37.607,106.404,90.621,121.356v27.413h67.966v-27.413c53.014-14.952,90.621-65.398,90.621-121.356
	c0-26.281,10.195-50.748,28.773-69.325L442,198.607H391.931z"/>
<path style="fill:#66BD21;" d="M442,198.607l-32.624,32.624c-18.577,18.577-28.773,43.044-28.773,69.325
	c0,55.958-37.607,106.404-90.621,121.356v27.413H256V289.228c22.202-53.241,74.762-90.621,135.931-90.621H442z"/>
<g>
</g>
<g>
</g>
<g>
</g>
<g>
</g>
<g>
</g>
<g>
</g>
<g>
</g>
<g>
</g>
<g>
</g>
<g>
</g>
<g>
</g>
<g>
</g>
<g>
</g>
<g>
</g>
<g>
</g>
</svg>
