<?xml version="1.0" encoding="iso-8859-1"?>
<!-- Generator: Adobe Illustrator 19.0.0, SVG Export Plug-In . SVG Version: 6.00 Build 0)  -->
<svg version="1.1" id="Capa_1" xmlns="http://www.w3.org/2000/svg" xmlns:xlink="http://www.w3.org/1999/xlink" x="0px" y="0px"
	 viewBox="0 0 512 512" style="enable-background:new 0 0 512 512;" xml:space="preserve">
<circle style="fill:#32D736;" cx="256" cy="256" r="256"/>
<path style="fill:#0CA656;" d="M512,256c0-1.354-0.03-2.702-0.051-4.051l-172.65-172.65L252.5,206.25l-12.847,52.754
	L118.959,393.041L237.23,511.312C243.429,511.761,249.686,512,256,512C397.385,512,512,397.385,512,256z"/>
<path style="fill:#DFCCBF;" d="M259.241,266.103l-40.029,40.029c-3.736,3.736-9.607,3.736-13.343,0s-3.736-9.607,0-13.343
	l40.029-40.029c3.736-3.736,9.607-3.736,13.343,0S262.977,262.366,259.241,266.103z"/>
<path style="fill:#57555C;" d="M212.54,339.49l-53.551,53.552c-11.074,11.074-28.954,11.075-40.029,0s-11.074-28.955,0-40.029
	l53.552-53.551L212.54,339.49z"/>
<path style="fill:#C8AD92;" d="M205.868,306.132l53.372-53.372c3.736,3.736,3.736,9.607,0,13.343l-40.029,40.029
	C215.476,309.868,209.605,309.868,205.868,306.132z"/>
<path style="fill:#3C3A41;" d="M212.54,339.49l-53.551,53.552c-11.074,11.074-28.954,11.075-40.029,0l73.566-73.566L212.54,339.49z"
	/>
<path style="fill:#EFE6DE;" d="M432.701,172.701l-93.402,93.402c-25.886,25.886-67.383,25.752-93.402,0l-2.535-2.535
	c-23.884-26.553-20.148-68.183,5.204-93.535L339.299,79.3c14.677,14.677,14.678,38.695,0,53.372l-66.716,66.716
	c-11.074,11.074-11.075,28.954,0,40.029s28.955,11.074,40.029,0l66.716-66.716C394.006,158.023,418.024,158.024,432.701,172.701z"/>
<path style="fill:#DFCCBF;" d="M432.701,172.701l-93.402,93.402c-25.886,25.886-67.383,25.752-93.402,0l26.686-26.686
	c11.075,11.075,28.955,11.074,40.029,0l66.716-66.716C394.006,158.023,418.024,158.024,432.701,172.701z"/>
<path style="fill:#BF6015;" d="M219.211,359.504l-6.672,6.672l-66.716-66.716l6.672-6.672c18.414-18.414,48.302-18.414,66.716,0
	c9.207,9.207,13.877,21.349,13.877,33.358S228.418,350.298,219.211,359.504z"/>
<path style="fill:#994C10;" d="M233.089,326.147c-0.001,12.008-4.671,24.151-13.877,33.358l-6.672,6.672l-33.358-33.358
	l40.029-40.029C228.418,301.996,233.089,314.137,233.089,326.147z"/>
<g>
</g>
<g>
</g>
<g>
</g>
<g>
</g>
<g>
</g>
<g>
</g>
<g>
</g>
<g>
</g>
<g>
</g>
<g>
</g>
<g>
</g>
<g>
</g>
<g>
</g>
<g>
</g>
<g>
</g>
</svg>
