<?xml version="1.0" encoding="iso-8859-1"?>
<!-- Generator: Adobe Illustrator 19.0.0, SVG Export Plug-In . SVG Version: 6.00 Build 0)  -->
<svg version="1.1" id="Capa_1" xmlns="http://www.w3.org/2000/svg" xmlns:xlink="http://www.w3.org/1999/xlink" x="0px" y="0px"
	 viewBox="0 0 512 512" style="enable-background:new 0 0 512 512;" xml:space="preserve">
<circle style="fill:#BF6015;" cx="256" cy="256" r="256"/>
<path style="fill:#713708;" d="M512,256c0-6.634-0.252-13.208-0.748-19.715L393.537,118.571L118.571,393.537l117.715,117.715
	C242.792,511.748,249.366,512,256,512C397.385,512,512,397.385,512,256z"/>
<path style="fill:#FEA832;" d="M319.968,101.975c-26.602-16.33-60.616-12.296-82.713,9.801l-125.48,125.48
	c-22.097,22.097-26.131,56.111-9.801,82.713c0.405,0.657,0.876,1.247,1.4,1.772c3.072,3.072,7.949,3.756,11.818,1.387
	l192.453-192.453C310.42,126.149,324.487,104.822,319.968,101.975z"/>
<path style="fill:#FC4629;" d="M411.204,200.109L200.11,411.204c-28.267,10.6-60.203,3.669-81.539-17.666
	c-30.034-30.034-30.033-78.685,0-108.718L284.82,118.571c30.034-30.034,78.684-30.034,108.718,0
	C414.873,139.907,421.804,171.842,411.204,200.109z"/>
<path style="fill:#FF2615;" d="M411.204,200.109L200.11,411.204c-28.267,10.6-60.203,3.669-81.539-17.666l274.967-274.967
	C414.873,139.907,421.804,171.842,411.204,200.109z"/>
<path style="fill:#FEDB41;" d="M149.834,348.238c-11.539-12.322-14.147-28.175-6.801-41.373
	c6.954-12.501,21.035-19.018,35.036-16.217c4.499,0.902,8.938-0.445,12.183-3.689s4.592-7.684,3.689-12.183
	c-2.15-10.75,1.194-21.791,8.945-29.542s18.792-11.095,29.542-8.945c4.499,0.902,8.938-0.445,12.183-3.689
	c3.245-3.245,4.592-7.684,3.689-12.183c-2.15-10.75,1.194-21.791,8.945-29.542c7.75-7.75,18.792-11.095,29.542-8.945
	c6.881,1.374,12.322-2.555,14.665-7.06c3.225-6.198,1.254-13.278-5.508-19.84c-0.06-0.06-0.113-0.113-0.166-0.166l13.424-13.756
	c15.952,15.103,14.97,31.705,9.296,42.62c-6.795,13.085-21.055,19.927-35.481,17.047c-4.499-0.902-8.938,0.445-12.183,3.689
	c-3.245,3.245-4.592,7.684-3.689,12.183c2.15,10.75-1.194,21.791-8.945,29.542c-7.75,7.75-18.792,11.095-29.542,8.945
	c-4.499-0.902-8.938,0.445-12.183,3.689s-4.592,7.684-3.689,12.183c2.15,10.75-1.194,21.791-8.945,29.542
	c-7.75,7.75-18.792,11.095-29.542,8.945c-6.669-1.334-12.077,2.415-14.472,6.722c-3.238,5.813-1.765,12.701,4.034,18.898
	l-13.583,13.583"/>
<path style="fill:#FCBF29;" d="M179.724,400.332c-11.241-11.241-11.241-29.528,0-40.769l179.839-179.839
	c11.241-11.241,29.528-11.241,40.769,0c26.224,26.224,26.224,68.904,0,95.128l-125.48,125.48
	C248.628,426.556,205.948,426.556,179.724,400.332z"/>
<g>
</g>
<g>
</g>
<g>
</g>
<g>
</g>
<g>
</g>
<g>
</g>
<g>
</g>
<g>
</g>
<g>
</g>
<g>
</g>
<g>
</g>
<g>
</g>
<g>
</g>
<g>
</g>
<g>
</g>
</svg>
