<?xml version="1.0" encoding="iso-8859-1"?>
<!-- Generator: Adobe Illustrator 19.0.0, SVG Export Plug-In . SVG Version: 6.00 Build 0)  -->
<svg version="1.1" id="Capa_1" xmlns="http://www.w3.org/2000/svg" xmlns:xlink="http://www.w3.org/1999/xlink" x="0px" y="0px"
	 viewBox="0 0 512 512" style="enable-background:new 0 0 512 512;" xml:space="preserve">
<circle style="fill:#FEDB41;" cx="256" cy="256" r="256"/>
<path style="fill:#FE9923;" d="M258.468,511.969C398.714,510.642,512,396.56,512,256c0-6.591-0.25-13.124-0.74-19.59
	L393.396,118.545l-24.176-17.712L121.636,272.548l71.471,71.478l-12.314,27.745l13.451,13.474l-25.394,37.108L258.468,511.969z"/>
<path style="fill:#BF0000;" d="M324.323,243.097c-1.028,6.55-3.99,12.669-8.68,17.516l-29.827,23.979h38.989
	c49.554,0,90.059-37.178,96.22-85.064L324.323,243.097z"/>
<path style="fill:#FF2615;" d="M410.037,140.6c-9.397-16.914-23.548-30.845-40.818-39.766c-10.817-5.587-22.795-8.943-35.483-10.117
	c-0.813-0.075-1.554-0.351-2.373-0.407l-0.098,0.657l-18.262,122.852c2.634,2.145,4.922,4.687,6.759,7.54
	c3.822,5.936,5.855,13.474,4.559,21.738c6.443,1.512,13.078,2.506,19.976,2.506c33.223,0,61.84-18.778,76.726-46.075
	C423.366,181.331,422.145,162.387,410.037,140.6z"/>
<path style="fill:#BF0000;" d="M331.364,90.31c-2.208-0.15-4.312-0.662-6.558-0.662h-63.824h-14.153l0.465,10.321l4.511,100.068
	l0.288,6.382c2.333,0.334,43.084,0.195,41.133,0.195c7.509,0,14.341,2.775,19.78,7.204c29.144-7.765,50.79-34.134,50.79-65.688
	C363.794,123.679,350.75,102.358,331.364,90.31z"/>
<path style="fill:#FC4629;" d="M246.828,89.648h-97.472v9.747c0,56.923,44.642,103.71,100.785,106.829
	c0.39,0.195,0.974,0.195,1.56,0.195c0.195,0,0.195,0,0.39,0c29.826-2.73,53.219-28.267,53.219-58.288
	C305.311,115.965,278.994,89.648,246.828,89.648z"/>
<rect x="207.84" y="128.64" style="fill:#3C3A41;" width="19.494" height="19.494"/>
<path style="fill:#FF2615;" d="M265.84,341.219c-1.028,6.55-3.99,12.669-8.68,17.516l-29.827,23.979h38.989
	c49.555,0,90.059-37.828,96.22-85.714L265.84,341.219z"/>
<path style="fill:#FC4629;" d="M351.554,238.071c-9.397-16.914-23.548-30.845-40.818-39.766
	c-10.817-5.587-22.795-8.943-35.483-10.117c-0.813-0.075-1.554-0.351-2.373-0.407l-0.098,0.657L254.52,311.29
	c2.634,2.145,4.922,4.687,6.759,7.54c3.822,5.936,5.855,14.124,4.559,22.388c6.443,1.512,13.078,2.506,19.976,2.506
	c33.223,0,61.84-19.428,76.726-46.725C364.883,278.803,363.662,259.858,351.554,238.071z"/>
<path style="fill:#FF2615;" d="M272.881,187.781c-2.208-0.15-4.312-0.662-6.558-0.662h-63.824h-14.153l0.465,10.321l4.511,100.068
	l0.288,6.382c2.333,0.334,43.084,0.195,41.133,0.195c7.509,0,14.341,2.775,19.78,7.204c29.144-7.765,50.79-34.134,50.79-65.688
	C305.311,221.151,292.267,199.83,272.881,187.781z"/>
<path style="fill:#FC4629;" d="M188.345,187.12H89.573v9.747c0,56.923,45.941,103.71,102.085,106.829
	c0.39,0.195,0.974,0.195,1.56,0.195c0.195,0,0.195,0,0.39,0c29.826-2.729,53.219-28.267,53.219-58.288
	C246.828,213.437,220.511,187.12,188.345,187.12z"/>
<path style="fill:#BF0000;" d="M188.345,343.725h-19.494c0,21.503,17.486,38.989,38.989,38.989
	c-21.503,0-38.989,18.136-38.989,39.639h19.494c21.503,0,38.989-18.136,38.989-39.639S209.848,343.725,188.345,343.725z"/>
<rect x="149.36" y="226.11" style="fill:#57555C;" width="19.494" height="19.494"/>
<g>
</g>
<g>
</g>
<g>
</g>
<g>
</g>
<g>
</g>
<g>
</g>
<g>
</g>
<g>
</g>
<g>
</g>
<g>
</g>
<g>
</g>
<g>
</g>
<g>
</g>
<g>
</g>
<g>
</g>
</svg>
