<?xml version="1.0" encoding="iso-8859-1"?>
<!-- Generator: Adobe Illustrator 19.0.0, SVG Export Plug-In . SVG Version: 6.00 Build 0)  -->
<svg version="1.1" id="Capa_1" xmlns="http://www.w3.org/2000/svg" xmlns:xlink="http://www.w3.org/1999/xlink" x="0px" y="0px"
	 viewBox="0 0 512 512" style="enable-background:new 0 0 512 512;" xml:space="preserve">
<circle style="fill:#FEDB41;" cx="256" cy="256" r="256"/>
<path style="fill:#FE9923;" d="M512,256c0-6.839-0.275-13.614-0.802-20.318L393.867,118.351L97.621,372.118l139.166,139.166
	C243.131,511.755,249.537,512,256,512C397.385,512,512,397.385,512,256z"/>
<path style="fill:#EFE6DE;" d="M207.499,380.007c-1.408-8.452-5.353-16.059-11.269-21.976l49.725-49.507l-42.261-42.261
	l-49.725,49.507c-5.916-5.916-13.524-9.861-21.976-11.269c-12.538-1.831-25.356,2.254-34.372,11.269
	c-15.495,15.495-15.495,40.852,0,56.348c8.452,8.452,19.581,12.256,30.709,11.551c-0.704,11.128,3.1,22.258,11.551,30.709
	c15.495,15.495,40.852,15.495,56.348,0C205.245,405.363,209.33,392.544,207.499,380.007z"/>
<path style="fill:#DFCCBF;" d="M196.23,414.379c-15.495,15.495-40.852,15.495-56.348,0c-8.452-8.452-12.256-19.581-11.551-30.709
	l96.493-96.276l21.13,21.13l-49.725,49.507c5.916,5.916,9.861,13.524,11.269,21.976C209.33,392.544,205.245,405.363,196.23,414.379z
	"/>
<path style="fill:#BF6015;" d="M425.421,184.559c-2.536-25.356-13.805-48.458-31.555-66.208
	c-5.494-5.494-11.691-10.565-18.313-14.932c-36.767-24.089-85.649-23.102-121.852,2.395c-31.977,22.679-49.445,59.305-46.487,98.043
	c1.267,18.173-6.198,36.908-20.848,51.559l-10.847,10.847l70.434,70.434l11.41-11.41c13.524-13.524,33.386-20.707,55.784-20.003
	c30.568,0.986,59.164-10.424,80.718-31.978C417.251,249.923,428.802,217.523,425.421,184.559z"/>
<g>
	<polygon style="fill:#713708;" points="309.208,146.662 302.164,139.619 316.114,125.394 330.476,139.481 316.389,153.568 	"/>
	<polygon style="fill:#713708;" points="266.947,160.749 259.904,153.706 273.853,139.481 288.215,153.568 274.128,167.655 	"/>
	<polygon style="fill:#713708;" points="295.121,188.923 288.078,181.879 302.027,167.655 316.389,181.742 302.302,195.829 	"/>
</g>
<path style="fill:#994C10;" d="M393.867,273.307c-21.553,21.553-50.149,32.964-80.718,31.978
	c-22.399-0.704-42.261,6.479-55.784,20.003l-11.41,11.41l-35.217-35.217l183.13-183.13c17.75,17.75,29.019,40.851,31.555,66.208
	C428.802,217.523,417.251,249.923,393.867,273.307z"/>
<g>
</g>
<g>
</g>
<g>
</g>
<g>
</g>
<g>
</g>
<g>
</g>
<g>
</g>
<g>
</g>
<g>
</g>
<g>
</g>
<g>
</g>
<g>
</g>
<g>
</g>
<g>
</g>
<g>
</g>
</svg>
