<?xml version="1.0" encoding="iso-8859-1"?>
<!-- Generator: Adobe Illustrator 19.0.0, SVG Export Plug-In . SVG Version: 6.00 Build 0)  -->
<svg version="1.1" id="Capa_1" xmlns="http://www.w3.org/2000/svg" xmlns:xlink="http://www.w3.org/1999/xlink" x="0px" y="0px"
	 viewBox="0 0 512.001 512.001" style="enable-background:new 0 0 512.001 512.001;" xml:space="preserve">
<circle style="fill:#32D736;" cx="256" cy="256" r="256"/>
<path style="fill:#0CA656;" d="M512,256c0-2.388-0.039-4.768-0.104-7.14L346.818,83.782l-181.636,20.182l7,6.337l-7,317.918
	l83.678,83.678c2.373,0.065,4.752,0.104,7.14,0.104C397.385,512,512,397.385,512,256z"/>
<polygon style="fill:#EFE6DE;" points="367,165.182 346.818,185.364 165.182,185.364 145,165.182 180.318,93.873 331.682,93.873 "/>
<polygon style="fill:#DFCCBF;" points="346.818,185.364 256,185.364 256,93.873 331.682,93.873 367,165.182 "/>
<polygon style="fill:#EFE6DE;" points="367,387.855 346.818,428.218 165.182,428.218 145,387.855 175.273,367.673 337.534,367.673 
	"/>
<polygon style="fill:#DFCCBF;" points="337.534,367.673 367,387.855 346.818,428.218 256,428.218 256,367.673 "/>
<polygon style="fill:#17ACE8;" points="367,165.182 367,225.727 346.818,245.909 165.182,245.909 145,225.727 145,165.182 "/>
<polygon style="fill:#1689FC;" points="367,165.182 367,225.727 346.818,245.909 256,245.909 256,165.182 "/>
<polygon style="fill:#17ACE8;" points="367,326.636 367,387.855 145,387.855 145,326.636 165.182,306.455 346.818,306.455 "/>
<polygon style="fill:#1689FC;" points="346.818,306.455 367,326.636 367,387.855 256,387.855 256,306.455 "/>
<path style="fill:#FEDB41;" d="M305.447,225.727c-13.119-12.917-31.282-19.375-49.446-19.375s-36.327,6.458-49.446,19.375H145
	v100.909h61.554c13.321,12.917,30.879,20.182,49.446,20.182s36.125-7.265,49.446-20.182H367V225.727H305.447z"/>
<path style="fill:#FCBF29;" d="M305.447,225.727H367v100.909h-61.554c-13.321,12.917-30.879,20.182-49.446,20.182V206.352
	C274.164,206.352,292.327,212.811,305.447,225.727z"/>
<path style="fill:#17ACE8;" d="M256,245.909c-16.751,0-30.273,13.521-30.273,30.273s13.521,30.273,30.273,30.273
	s30.273-13.521,30.273-30.273S272.751,245.909,256,245.909z"/>
<path style="fill:#1689FC;" d="M286.273,276.182c0,16.751-13.521,30.273-30.273,30.273V245.91
	C272.751,245.909,286.273,259.431,286.273,276.182z"/>
<rect x="165.18" y="83.78" style="fill:#57555C;" width="181.64" height="20.18"/>
<rect x="256" y="83.78" style="fill:#3C3A41;" width="90.82" height="20.18"/>
<g>
</g>
<g>
</g>
<g>
</g>
<g>
</g>
<g>
</g>
<g>
</g>
<g>
</g>
<g>
</g>
<g>
</g>
<g>
</g>
<g>
</g>
<g>
</g>
<g>
</g>
<g>
</g>
<g>
</g>
</svg>
