<?xml version="1.0" encoding="iso-8859-1"?>
<!-- Generator: Adobe Illustrator 19.0.0, SVG Export Plug-In . SVG Version: 6.00 Build 0)  -->
<svg version="1.1" id="Capa_1" xmlns="http://www.w3.org/2000/svg" xmlns:xlink="http://www.w3.org/1999/xlink" x="0px" y="0px"
	 viewBox="0 0 512 512" style="enable-background:new 0 0 512 512;" xml:space="preserve">
<circle style="fill:#17ACE8;" cx="256" cy="256" r="256"/>
<path style="fill:#136EF1;" d="M322.137,503.356C431.462,474.199,512,374.513,512,256c0-9.089-0.482-18.064-1.406-26.909
	L396.826,115.323L280.333,184l-165.159-4.792l77.662,77.645l18.852,62.323l17.242,17.253v73.72L322.137,503.356z"/>
<path style="fill:#EFE6DE;" d="M319.164,220.356v53.84c0,24.543-14.257,46.741-36.094,57.028v78.925h-54.14v-78.925
	c-21.837-10.287-36.094-32.484-36.094-57.028v-53.84c0-5.054,3.97-9.023,9.023-9.023h27.07v62.864
	c0,14.978,12.091,27.07,27.07,27.07s27.07-12.092,27.07-27.07v-62.864h27.07C315.194,211.333,319.164,215.302,319.164,220.356z"/>
<path style="fill:#DFCCBF;" d="M319.164,220.356v53.84c0,24.543-14.257,46.741-36.094,57.028v78.925H256V301.266
	c14.979,0,27.07-12.092,27.07-27.07v-62.864h27.07C315.194,211.333,319.164,215.302,319.164,220.356z"/>
<path style="fill:#FC4629;" d="M410,147.266c0,12.091-4.692,23.461-13.174,31.942C359.469,216.566,309.058,237.14,256,237.14
	s-103.469-20.574-140.826-57.931C106.692,170.727,102,159.358,102,147.266s4.692-23.461,13.174-31.943
	c17.145-16.964,47.343-16.964,64.488,0c8.482,8.662,18.407,14.979,28.694,20.032l-1.083,20.935l17.866-14.258
	c7.219,1.986,14.438,3.429,21.837,3.971l9.023,19.31l9.023-19.31c7.399-0.542,14.618-1.985,21.837-3.971l11.73,13.716l5.054-20.393
	c10.287-5.053,20.212-11.37,28.694-20.032c17.145-16.964,47.343-16.964,64.488,0C405.308,123.806,410,135.174,410,147.266z"/>
<g>
	<path style="fill:#FF2615;" d="M410,147.266c0,12.091-4.692,23.461-13.174,31.942C359.469,216.566,309.058,237.14,256,237.14
		v-71.826l9.023-19.31c7.399-0.542,14.618-1.985,21.837-3.971l11.73,13.716l5.054-20.393c10.287-5.053,20.212-11.37,28.694-20.032
		c17.145-16.964,47.343-16.964,64.488,0C405.308,123.806,410,135.174,410,147.266z"/>
	<path style="fill:#FF2615;" d="M265.023,146.003v46.381h-18.047v-46.381c2.887,0.181,5.956,0.361,9.023,0.361
		S262.136,146.184,265.023,146.003z"/>
</g>
<path style="fill:#BF0000;" d="M318.697,180.505l-15.043-45.126c-5.468,2.693-11.057,4.865-16.823,6.579l14.753,44.257
	L318.697,180.505z"/>
<path style="fill:#FF2615;" d="M210.416,186.215l14.752-44.257c-5.766-1.714-11.355-3.886-16.823-6.58l-15.042,45.127
	L210.416,186.215z"/>
<path style="fill:#BF0000;" d="M265.023,146.003v46.381H256v-46.019C259.068,146.364,262.136,146.184,265.023,146.003z"/>
<g>
</g>
<g>
</g>
<g>
</g>
<g>
</g>
<g>
</g>
<g>
</g>
<g>
</g>
<g>
</g>
<g>
</g>
<g>
</g>
<g>
</g>
<g>
</g>
<g>
</g>
<g>
</g>
<g>
</g>
</svg>
