<?xml version="1.0" encoding="iso-8859-1"?>
<!-- Generator: Adobe Illustrator 19.0.0, SVG Export Plug-In . SVG Version: 6.00 Build 0)  -->
<svg version="1.1" id="Capa_1" xmlns="http://www.w3.org/2000/svg" xmlns:xlink="http://www.w3.org/1999/xlink" x="0px" y="0px"
	 viewBox="0 0 512 512" style="enable-background:new 0 0 512 512;" xml:space="preserve">
<circle style="fill:#FEDB41;" cx="256" cy="256" r="256"/>
<path style="fill:#FE9923;" d="M512,256c0-6.606-0.251-13.153-0.742-19.633L402,127.109h-32.721l-9.154-9.14L110,179.008l18,17.109
	l-18,51.328l18,17.109l-18,51.328l18,17.109l-18,51.898l126.367,126.367C242.847,511.749,249.394,512,256,512
	C397.385,512,512,397.385,512,256z"/>
<path style="fill:#EFE6DE;" d="M110,127.109v51.898h51.898v-51.898C161.898,127.109,110,127.109,110,127.109z"/>
<rect x="110" y="153.34" style="fill:#DFCCBF;" width="51.898" height="25.664"/>
<path style="fill:#EFE6DE;" d="M350.102,127.109v51.898H402v-51.898C402,127.109,350.102,127.109,350.102,127.109z"/>
<rect x="350.1" y="153.34" style="fill:#DFCCBF;" width="51.898" height="25.664"/>
<path style="fill:#EFE6DE;" d="M110,196.117v51.328h51.898v-51.328H110z"/>
<rect x="110" y="221.78" style="fill:#DFCCBF;" width="51.898" height="25.664"/>
<path style="fill:#EFE6DE;" d="M350.102,196.117v51.328H402v-51.328H350.102z"/>
<rect x="350.1" y="221.78" style="fill:#DFCCBF;" width="51.898" height="25.664"/>
<path style="fill:#EFE6DE;" d="M110,264.555v51.328h51.898v-51.328H110z"/>
<rect x="110" y="290.22" style="fill:#DFCCBF;" width="51.898" height="25.664"/>
<path style="fill:#EFE6DE;" d="M350.102,264.555v51.328H402v-51.328H350.102z"/>
<rect x="350.1" y="290.22" style="fill:#DFCCBF;" width="51.898" height="25.664"/>
<path style="fill:#EFE6DE;" d="M110,332.992v51.898h51.898v-51.898H110z"/>
<rect x="110" y="358.66" style="fill:#DFCCBF;" width="51.898" height="26.23"/>
<path style="fill:#EFE6DE;" d="M350.102,332.992v51.898H402v-51.898H350.102z"/>
<rect x="350.1" y="358.66" style="fill:#DFCCBF;" width="51.898" height="26.23"/>
<path style="fill:#BF6015;" d="M367.211,135.664c0-14.201-11.463-25.664-25.664-25.664H170.453
	c-14.201,0-25.664,11.463-25.664,25.664v34.789c0,6.502,2.567,12.49,6.502,17.109c-3.935,4.619-6.502,10.608-6.502,17.109v34.219
	c0,6.502,2.567,12.49,6.502,17.109c-3.935,4.619-6.502,10.608-6.502,17.109v34.219c0,6.502,2.567,12.49,6.502,17.109
	c-3.935,4.619-6.502,10.608-6.502,17.109v34.789c0,14.2,11.463,25.664,25.664,25.664h171.094c14.201,0,25.664-11.464,25.664-25.664
	v-34.789c0-6.502-2.567-12.491-6.502-17.109c3.935-4.62,6.502-10.608,6.502-17.109v-34.219c0-6.502-2.567-12.491-6.502-17.109
	c3.935-4.62,6.502-10.608,6.502-17.109v-34.219c0-6.502-2.567-12.491-6.502-17.109c3.935-4.62,6.502-10.608,6.502-17.109V135.664z"
	/>
<path style="fill:#994C10;" d="M367.211,170.453c0,6.502-2.567,12.49-6.502,17.109c3.935,4.619,6.502,10.608,6.502,17.109v34.219
	c0,6.502-2.567,12.49-6.502,17.109c3.935,4.619,6.502,10.608,6.502,17.109v34.219c0,6.502-2.567,12.49-6.502,17.109
	c3.935,4.619,6.502,10.608,6.502,17.109v34.789c0,14.2-11.463,25.664-25.664,25.664H256V110h85.547
	c14.201,0,25.664,11.463,25.664,25.664V170.453z"/>
<g>
	<rect x="196.12" y="179.01" style="fill:#994C0F;" width="119.77" height="17.11"/>
	<rect x="196.12" y="247.44" style="fill:#994C0F;" width="119.77" height="17.11"/>
	<rect x="196.12" y="315.88" style="fill:#994C0F;" width="119.77" height="17.11"/>
</g>
<g>
	<rect x="256" y="179.01" style="fill:#713708;" width="59.883" height="17.11"/>
	<rect x="256" y="247.44" style="fill:#713708;" width="59.883" height="17.11"/>
	<rect x="256" y="315.88" style="fill:#713708;" width="59.883" height="17.11"/>
</g>
<g>
</g>
<g>
</g>
<g>
</g>
<g>
</g>
<g>
</g>
<g>
</g>
<g>
</g>
<g>
</g>
<g>
</g>
<g>
</g>
<g>
</g>
<g>
</g>
<g>
</g>
<g>
</g>
<g>
</g>
</svg>
