<?xml version="1.0" encoding="iso-8859-1"?>
<!-- Generator: Adobe Illustrator 19.0.0, SVG Export Plug-In . SVG Version: 6.00 Build 0)  -->
<svg version="1.1" id="Capa_1" xmlns="http://www.w3.org/2000/svg" xmlns:xlink="http://www.w3.org/1999/xlink" x="0px" y="0px"
	 viewBox="0 0 512 512" style="enable-background:new 0 0 512 512;" xml:space="preserve">
<circle style="fill:#32D736;" cx="256" cy="256" r="256"/>
<path style="fill:#0CA656;" d="M512,256c0-2.538-0.047-5.063-0.121-7.583L376.454,112.991L100.463,267.07l100.191,100.207
	l17.414,68.053l74.113,74.113C416.429,491.863,512,385.102,512,256z"/>
<path style="fill:#EFE6DE;" d="M296.12,433.102c-9.747,10.654-23.574,16.321-40.12,16.321s-30.374-5.667-40.12-16.321
	c-12.92-14.28-18.133-36.266-15.413-63.92l6.574-67.017c0.679-6.347,6.119-10.654,12.466-10.2h72.986
	c6.347-0.454,11.787,3.853,12.466,10.2l6.574,67.017C314.254,396.835,309.041,418.821,296.12,433.102z"/>
<g>
	<path style="fill:#DFCCBF;" d="M311.534,369.181c2.72,27.654-2.493,49.64-15.413,63.92c-9.747,10.654-23.574,16.321-40.12,16.321
		V291.964h36.493c6.347-0.454,11.787,3.853,12.466,10.2L311.534,369.181z"/>
	<path style="fill:#DFCCBF;" d="M358,264.085c0,14.506-6.12,28.106-16.773,37.626c-11.106,9.746-25.613,14.28-40.347,12.693
		c-14.506-1.587-29.693-2.493-44.88-2.493s-30.374,0.906-44.88,2.493c-2.041,0.227-4.08,0.454-6.12,0.454
		c-12.466,0-24.707-4.76-34.227-13.147C160.12,292.191,154,278.59,154,264.085c0-6.12,4.986-11.333,11.333-11.333h181.333
		C353.014,252.751,358,257.964,358,264.085z"/>
</g>
<path style="fill:#C8AD92;" d="M358,264.085c0,14.506-6.12,28.106-16.773,37.626c-11.106,9.746-25.613,14.28-40.347,12.693
	c-14.506-1.587-29.693-2.493-44.88-2.493v-59.16h90.667C353.014,252.751,358,257.964,358,264.085z"/>
<path style="fill:#FC4629;" d="M426,232.578c0,14.507-6.573,28.333-17.681,37.399c-8.839,7.253-19.72,11.108-30.826,11.108
	c-3.174,0-6.346-0.227-9.52-0.908l-24.48-4.986c-28.786-5.894-58.027-8.613-87.493-8.613s-58.707,2.72-87.493,8.613l-24.48,4.986
	c-14.28,2.72-29.013-0.906-40.346-10.2C92.573,260.911,86,247.085,86,232.578c0-18.587,3.174-36.267,8.613-53.041l45.333-70.72
	C170.319,80.257,211.12,62.578,256,62.578s85.681,17.679,116.053,46.239l45.333,70.72C422.826,196.31,426,213.991,426,232.578z"/>
<path style="fill:#FF2615;" d="M426,232.578c0,14.507-6.573,28.333-17.681,37.399c-8.839,7.253-19.72,11.108-30.826,11.108
	c-3.174,0-6.346-0.227-9.52-0.908l-24.48-4.986c-28.786-5.894-58.027-8.613-87.493-8.613v-204c44.88,0,85.681,17.679,116.053,46.239
	l45.333,70.72C422.826,196.31,426,213.991,426,232.578z"/>
<path style="fill:#FEDBAB;" d="M256,130.578c-24.933,0-45.333,20.399-45.333,45.333c0,24.933,20.401,45.333,45.333,45.333
	s45.333-20.401,45.333-45.333C301.333,150.977,280.933,130.578,256,130.578z"/>
<path style="fill:#FEC478;" d="M335.333,153.244c0,25.002,20.331,45.333,45.333,45.333c15.161,0,28.523-7.543,36.757-19.003
	c-8.998-27.328-24.77-51.537-45.295-70.8C351.204,112.784,335.333,131.166,335.333,153.244z"/>
<path style="fill:#FEDBAB;" d="M131.333,198.578c25.002,0,45.333-20.331,45.333-45.333c0-22.081-15.875-40.465-36.804-44.471
	c-20.522,19.263-36.292,43.471-45.289,70.799C102.808,191.034,116.171,198.578,131.333,198.578z"/>
<path style="fill:#FEC478;" d="M256,221.244v-90.667c24.933,0,45.333,20.399,45.333,45.333S280.933,221.244,256,221.244z"/>
<g>
</g>
<g>
</g>
<g>
</g>
<g>
</g>
<g>
</g>
<g>
</g>
<g>
</g>
<g>
</g>
<g>
</g>
<g>
</g>
<g>
</g>
<g>
</g>
<g>
</g>
<g>
</g>
<g>
</g>
</svg>
