<?xml version="1.0" encoding="iso-8859-1"?>
<!-- Generator: Adobe Illustrator 19.0.0, SVG Export Plug-In . SVG Version: 6.00 Build 0)  -->
<svg version="1.1" id="Capa_1" xmlns="http://www.w3.org/2000/svg" xmlns:xlink="http://www.w3.org/1999/xlink" x="0px" y="0px"
	 viewBox="0 0 512 512" style="enable-background:new 0 0 512 512;" xml:space="preserve">
<circle style="fill:#32D736;" cx="256" cy="256" r="256"/>
<path style="fill:#0CA656;" d="M509.125,294.452L334.116,119.444l-187.383,86.228l61,60.262L166.6,305.667l12.15,12l0.684,38.4
	L107,385.795l125.083,125.083c7.876,0.73,15.85,1.122,23.917,1.122C384.315,512,490.575,417.594,509.125,294.452z"/>
<path style="fill:#FE9923;" d="M405,385.796h-59.6l-19.867-39.733h59.6c10.972,0,19.867,8.895,19.867,19.867V385.796z"/>
<path style="fill:#FEA832;" d="M166.6,385.796H107v-19.867c0-10.972,8.895-19.867,19.867-19.867h59.6L166.6,385.796z"/>
<rect x="166.6" y="365.93" style="fill:#57555C;" width="178.8" height="19.867"/>
<path style="fill:#73553A;" d="M265.933,195.738v80.129c0,5.562-4.37,9.933-9.933,9.933c-5.563,0-9.933-4.371-9.933-9.933v-80.129
	c0-5.563,4.37-9.933,9.933-9.933C261.563,185.804,265.933,190.175,265.933,195.738z"/>
<path style="fill:#1689FC;" d="M146.733,195.738v9.933h59.998L253.417,86.67C194.414,87.862,146.733,136.337,146.733,195.738z"/>
<path style="fill:#136EF1;" d="M258.583,86.67l46.686,119.001h59.998v-9.933C365.267,136.337,317.586,87.862,258.583,86.67z"/>
<path style="fill:#59422D;" d="M265.933,195.738v80.129c0,5.562-4.37,9.933-9.933,9.933v-99.996
	C261.563,185.804,265.933,190.175,265.933,195.738z"/>
<rect x="256" y="365.93" style="fill:#3C3A41;" width="89.4" height="19.867"/>
<path style="fill:#17ACE8;" d="M305.269,205.671h-98.538c-1.59-43.707,7.351-85.426,24.436-105.89
	c7.947-9.536,16.092-12.516,22.251-13.111c0.993-0.199,1.789-0.199,2.583-0.199s1.59,0,2.583,0.199
	c6.159,0.595,14.303,3.576,22.251,13.111C297.918,120.245,306.859,161.964,305.269,205.671z"/>
<path style="fill:#1689FC;" d="M305.269,205.671H256v-119.2c0.794,0,1.59,0,2.583,0.199c6.159,0.595,14.303,3.576,22.251,13.111
	C297.918,120.245,306.859,161.964,305.269,205.671z"/>
<polygon style="fill:#3C3A41;" points="347.753,425.529 306.181,298.876 325.019,292.59 366.591,419.243 "/>
<polygon style="fill:#57555C;" points="164.247,425.529 145.409,419.243 186.981,292.59 205.819,298.876 "/>
<path style="fill:#FEA832;" d="M345.4,285.8v19.867H166.6V285.8c0-10.926,8.94-19.867,19.867-19.867h139.067
	C336.46,265.933,345.4,274.874,345.4,285.8z"/>
<path style="fill:#FE9923;" d="M345.4,285.8v19.867H256v-39.733h69.533C336.46,265.933,345.4,274.874,345.4,285.8z"/>
<g>
</g>
<g>
</g>
<g>
</g>
<g>
</g>
<g>
</g>
<g>
</g>
<g>
</g>
<g>
</g>
<g>
</g>
<g>
</g>
<g>
</g>
<g>
</g>
<g>
</g>
<g>
</g>
<g>
</g>
</svg>
