<?xml version="1.0" encoding="iso-8859-1"?>
<!-- Generator: Adobe Illustrator 19.0.0, SVG Export Plug-In . SVG Version: 6.00 Build 0)  -->
<svg version="1.1" id="Capa_1" xmlns="http://www.w3.org/2000/svg" xmlns:xlink="http://www.w3.org/1999/xlink" x="0px" y="0px"
	 viewBox="0 0 512.001 512.001" style="enable-background:new 0 0 512.001 512.001;" xml:space="preserve">
<circle style="fill:#BF6015;" cx="256" cy="256" r="256"/>
<path style="fill:#713708;" d="M511.929,261.601L410.632,160.303l-48.17-23.577l-19.705-20.589L134.333,395.24l116.698,116.698
	c1.654,0.032,3.308,0.063,4.969,0.063C395.512,512,508.948,400.398,511.929,261.601z"/>
<path style="fill:#C8AD92;" d="M362.297,295.317c-4.917,0-9.2-3.629-9.893-8.634c-0.741-5.473,3.083-10.507,8.546-11.259
	c29.493-4.029,53.069-29.561,53.069-59.385c0-33.054-28.22-59.941-61.273-59.941c-13.776,0-26.722,4.546-37.454,13.132
	c-4.302,3.444-10.576,2.771-14.039-1.551c-3.454-4.302-2.761-10.595,1.551-14.039c14.098-11.298,31.834-17.522,49.941-17.522
	c44.068,0,81.254,35.854,81.254,79.922c0,39.766-31,73.805-70.337,79.19C363.205,295.288,362.746,295.317,362.297,295.317z"/>
<polygon style="fill:#EFE6DE;" points="342.757,116.137 322.775,156.098 289.408,176.078 172.123,176.078 152.941,156.098 
	132.961,96.156 232.863,105.746 "/>
<polygon style="fill:#DFCCBF;" points="342.757,116.137 322.775,156.098 289.408,176.078 232.863,176.078 232.863,105.746 "/>
<path style="fill:#6ECD24;" d="M372.727,295.961c0,48.352-24.376,92.51-65.337,118.284l-2.398,1.599H160.734l-2.398-1.599
	C117.376,388.471,93,344.313,93,295.961c0-40.761,19.182-79.323,50.151-106.096c8.791-7.593,14.385-19.98,10.589-31.369
	l-0.799-2.398h169.834l-1.599,3.796c-4.595,11.588-2.796,24.776,6.194,32.967C356.142,219.235,372.727,256.799,372.727,295.961z"/>
<path style="fill:#66BD21;" d="M372.727,295.961c0,48.352-24.376,92.51-65.337,118.284l-2.398,1.599h-72.129V156.098h89.912
	l-1.599,3.796c-4.595,11.588-2.796,24.776,6.194,32.967C356.142,219.235,372.727,256.799,372.727,295.961z"/>
<path style="fill:#FEDB41;" d="M306.391,219.035l-6.993-7.193L172.123,339.118l7.193,6.994
	c14.985,14.985,33.967,23.577,53.548,25.774c3.396,0.4,6.594,0.599,9.99,0.599c22.978,0,45.955-8.79,63.538-26.373
	C341.557,311.146,341.557,254.001,306.391,219.035z"/>
<path style="fill:#FCBF29;" d="M306.391,346.112c-17.583,17.583-40.56,26.373-63.538,26.373c-3.396,0-6.594-0.199-9.99-0.599
	v-93.508l66.535-66.535l6.993,7.193C341.557,254.001,341.557,311.146,306.391,346.112z"/>
<g>
	<rect x="192.9" y="256" style="fill:#FEDB41;" width="19.98" height="19.98"/>
	<rect x="172.92" y="216.04" style="fill:#FEDB41;" width="19.98" height="19.98"/>
</g>
<rect x="232.86" y="196.06" style="fill:#FCBF29;" width="19.98" height="19.98"/>
<path style="fill:#FEA832;" d="M298.799,240.615l-65.935,65.935l-31.968,31.969c9.59,7.193,20.579,11.588,31.968,13.387
	c20.979,2.798,43.357-3.796,59.541-19.98C317.18,307.15,319.379,267.988,298.799,240.615z"/>
<path style="fill:#FE9923;" d="M292.405,331.926c-16.184,16.184-38.562,22.778-59.541,19.98V306.55l65.935-65.935
	C319.379,267.988,317.18,307.15,292.405,331.926z"/>
<path style="fill:#FCBF29;" d="M323.4,281.873l-79.395-9.249l-11.073,11.073l9.249,79.395c0.595,5.083,4.907,8.829,9.912,8.829
	c0.38,0,0.771-0.02,1.171-0.068c5.473-0.634,9.405-5.6,8.761-11.073l-7.788-66.851l66.851,7.788c0.39,0.049,0.78,0.068,1.161,0.068
	c5.005,0,9.317-3.746,9.912-8.829C332.805,287.473,328.873,282.507,323.4,281.873z"/>
<g>
</g>
<g>
</g>
<g>
</g>
<g>
</g>
<g>
</g>
<g>
</g>
<g>
</g>
<g>
</g>
<g>
</g>
<g>
</g>
<g>
</g>
<g>
</g>
<g>
</g>
<g>
</g>
<g>
</g>
</svg>
