<?xml version="1.0" encoding="iso-8859-1"?>
<!-- Generator: Adobe Illustrator 19.0.0, SVG Export Plug-In . SVG Version: 6.00 Build 0)  -->
<svg version="1.1" id="Capa_1" xmlns="http://www.w3.org/2000/svg" xmlns:xlink="http://www.w3.org/1999/xlink" x="0px" y="0px"
	 viewBox="0 0 512 512" style="enable-background:new 0 0 512 512;" xml:space="preserve">
<circle style="fill:#17ACE8;" cx="256" cy="256" r="256"/>
<path style="fill:#136EF1;" d="M512,256c0-12.405-0.901-24.598-2.606-36.532L391.913,101.987l-71.24,26.607l-41.943-8.8
	l-9.696-9.679l-34.534,0.448l-10.608,27.312l-51.517,22.376l-13.319,68.027l-45.201,127.166l156.17,156.17
	C404.886,504.33,512,392.678,512,256z"/>
<path style="fill:#57555C;" d="M159.056,246.357c-4.997,0-9.04-4.043-9.04-9.04v-36.161c0-34.89,28.392-63.282,63.282-63.282h54.241
	c4.997,0,9.04,4.043,9.04,9.04s-4.043,9.04-9.04,9.04h-54.241c-24.922,0-45.201,20.279-45.201,45.201v36.161
	C168.096,242.314,164.053,246.357,159.056,246.357z"/>
<polygon style="fill:#2B292C;" points="347.683,131.677 396.292,119.52 391.913,101.987 295.878,125.991 390.059,173.082 
	398.146,156.908 "/>
<path style="fill:#57555C;" d="M258.498,119.794v72.322h72.322v-72.322H258.498z"/>
<path style="fill:#FC4629;" d="M249.458,155.955c-14.955,0-27.121-12.165-27.121-27.121s12.165-27.121,27.121-27.121
	s27.121,12.165,27.121,27.121S264.413,155.955,249.458,155.955z M249.458,119.794c-4.988,0-9.04,4.052-9.04,9.04
	c0,4.988,4.052,9.04,9.04,9.04c4.988,0,9.04-4.052,9.04-9.04C258.498,123.846,254.446,119.794,249.458,119.794z"/>
<rect x="294.66" y="119.79" style="fill:#3C3A41;" width="36.16" height="72.32"/>
<path style="fill:#FC4629;" d="M204.257,355.443h-90.402l21.1-127.166h48.203L204.257,355.443z"/>
<polygon style="fill:#57555C;" points="366.981,374.126 366.981,410.287 222.337,410.287 222.337,374.126 240.418,355.443 
	348.901,355.443 "/>
<polygon style="fill:#3C3A41;" points="366.981,374.126 366.981,410.287 294.659,410.287 294.659,355.443 348.901,355.443 "/>
<path style="fill:#FC4629;" d="M330.82,264.438v54.844l36.161,18.081v36.764H222.337v-154.89c0-24.951,20.25-45.201,45.201-45.201
	h54.241c24.951,0,45.201,20.25,45.201,45.201v9.04L330.82,264.438z"/>
<path style="fill:#FF2615;" d="M330.82,264.438v54.844l36.161,18.081v36.764h-72.322V174.035h27.121
	c24.951,0,45.201,20.25,45.201,45.201v9.04L330.82,264.438z"/>
<rect x="294.66" y="228.28" style="fill:#DFCCBF;" width="72.32" height="109.09"/>
<g>
</g>
<g>
</g>
<g>
</g>
<g>
</g>
<g>
</g>
<g>
</g>
<g>
</g>
<g>
</g>
<g>
</g>
<g>
</g>
<g>
</g>
<g>
</g>
<g>
</g>
<g>
</g>
<g>
</g>
</svg>
