<?xml version="1.0" encoding="iso-8859-1"?>
<!-- Generator: Adobe Illustrator 19.0.0, SVG Export Plug-In . SVG Version: 6.00 Build 0)  -->
<svg version="1.1" id="Capa_1" xmlns="http://www.w3.org/2000/svg" xmlns:xlink="http://www.w3.org/1999/xlink" x="0px" y="0px"
	 viewBox="0 0 512 512" style="enable-background:new 0 0 512 512;" xml:space="preserve">
<circle style="fill:#32D736;" cx="256" cy="256" r="256"/>
<path style="fill:#0CA656;" d="M512,256c0-6.537-0.248-13.016-0.729-19.429L407.422,132.722l-302.163,247.32l131.223,131.223
	C242.925,511.75,249.433,512,256,512C397.385,512,512,397.385,512,256z"/>
<path style="fill:#1689FC;" d="M95.02,165.156c-5.538,0-10.02,4.481-10.02,10.02v161.648c0,22.6,15.02,42.974,40.078,58.64
	l20.707-109.251l-20.707-121.057L95.02,165.156L95.02,165.156z"/>
<path style="fill:#136EF1;" d="M416.98,165.156h-30.059l-20.039,121.057l20.039,109.251C411.98,379.799,427,359.424,427,336.824
	V175.176C427,169.638,422.519,165.156,416.98,165.156z"/>
<path style="fill:#17ACE8;" d="M386.922,165.156v230.382C355.862,414.776,308.903,427,256,427s-99.862-12.224-130.922-31.461
	V165.156H386.922z"/>
<path style="fill:#1689FC;" d="M386.922,165.156v230.382C355.862,414.776,308.903,427,256,427V165.156H386.922z"/>
<path style="fill:#EFE6DE;" d="M256,85c-95.587,0-171,39.677-171,90.176c0,50.498,75.413,90.176,171,90.176s171-39.678,171-90.176
	C427,124.677,351.587,85,256,85z"/>
<g>
	<path style="fill:#DFCCBF;" d="M427,175.176c0,50.498-75.413,90.176-171,90.176V85C351.587,85,427,124.677,427,175.176z"/>
	<path style="fill:#DFCCBF;" d="M386.922,175.176c0,20.039-52.57,50.098-130.922,50.098s-130.922-30.059-130.922-50.098
		c0-16.633,36.939-40.479,94.651-47.693L256,147.522l36.271-20.039C349.983,134.696,386.922,158.543,386.922,175.176z"/>
</g>
<path style="fill:#C8AD92;" d="M386.922,175.176c0,20.039-52.57,50.098-130.922,50.098v-77.752l36.271-20.039
	C349.983,134.696,386.922,158.543,386.922,175.176z"/>
<path style="fill:#57555C;" d="M289.065,150.729c-5.612,9.017-15.029,14.428-25.651,14.428h-14.829
	c-10.621,0-20.039-5.411-25.651-14.428c-4.408-7.014-5.41-15.43-3.206-23.246c11.222-1.603,23.445-2.405,36.271-2.405
	s25.049,0.801,36.271,2.405C294.475,135.298,293.473,143.714,289.065,150.729z"/>
<path style="fill:#3C3A41;" d="M289.065,150.729c-5.612,9.017-15.029,14.428-25.651,14.428H256v-40.078
	c12.825,0,25.049,0.801,36.271,2.405C294.475,135.298,293.473,143.714,289.065,150.729z"/>
<path style="fill:#FEDB41;" d="M343.169,313.779l-14.026-14.028l-27.654,27.453c-6.413-8.215-23.246-28.255-45.489-36.671
	c-6.212-2.405-13.026-3.807-20.039-3.807c-38.075,0-67.13,42.683-68.533,44.486l-3.607,5.612l3.607,5.61
	c1.403,1.804,30.459,44.487,68.533,44.487c7.013,0,13.827-1.403,20.039-3.807c22.243-8.416,39.076-28.455,45.489-36.672
	l27.654,27.453l14.026-14.028l-22.844-23.044L343.169,313.779z"/>
<rect x="215.92" y="326.81" style="fill:#57555C;" width="20.04" height="20.04"/>
<path style="fill:#FCBF29;" d="M320.326,336.824l22.844,23.044l-14.026,14.028l-27.654-27.453
	c-6.413,8.217-23.246,28.256-45.489,36.672v-92.58c22.243,8.416,39.076,28.455,45.489,36.671l27.654-27.453l14.026,14.028
	L320.326,336.824z"/>
<g>
</g>
<g>
</g>
<g>
</g>
<g>
</g>
<g>
</g>
<g>
</g>
<g>
</g>
<g>
</g>
<g>
</g>
<g>
</g>
<g>
</g>
<g>
</g>
<g>
</g>
<g>
</g>
<g>
</g>
</svg>
