<?xml version="1.0" encoding="iso-8859-1"?>
<!-- Generator: Adobe Illustrator 19.0.0, SVG Export Plug-In . SVG Version: 6.00 Build 0)  -->
<svg version="1.1" id="Capa_1" xmlns="http://www.w3.org/2000/svg" xmlns:xlink="http://www.w3.org/1999/xlink" x="0px" y="0px"
	 viewBox="0 0 512 512" style="enable-background:new 0 0 512 512;" xml:space="preserve">
<circle style="fill:#17ACE8;" cx="256" cy="256" r="256"/>
<path style="fill:#136EF1;" d="M511.824,265.046L327.777,81l-61.523,20.508L245.746,81l-82.031,350l80.728,80.728
	c3.832,0.17,7.682,0.272,11.557,0.272C394.355,512,507.056,402.24,511.824,265.046z"/>
<path style="fill:#FF2615;" d="M348.285,374.193V431h-184.57v-56.807c0-5.536,4.511-10.254,10.254-10.254h164.063
	C343.774,363.939,348.285,368.657,348.285,374.193z"/>
<path style="fill:#BF0000;" d="M348.285,374.193V431H256v-67.061h82.031C343.774,363.939,348.285,368.657,348.285,374.193z"/>
<polygon style="fill:#FC4629;" points="266.254,81 266.254,91.254 266.254,101.508 245.746,101.508 245.746,91.254 245.746,81 
	184.223,81 184.223,163.715 327.777,163.715 327.777,81 "/>
<polygon style="fill:#FF2615;" points="266.254,81 266.254,91.254 266.254,101.508 256,101.508 256,163.715 327.777,163.715 
	327.777,81 "/>
<path style="fill:#57555C;" d="M368.793,194.477v10.254l-20.508,20.508h-184.57l-20.508-20.508v-10.254
	c0-28.301,22.969-51.27,51.27-51.27h123.047C345.824,143.207,368.793,166.176,368.793,194.477z"/>
<path style="fill:#3C3A41;" d="M368.793,194.477v10.254l-20.508,20.508H256v-82.031h61.523
	C345.824,143.207,368.793,166.176,368.793,194.477z"/>
<path style="fill:#57555C;" d="M368.793,328.461v10.254c0,28.301-22.969,51.27-51.27,51.27H194.477
	c-28.301,0-51.27-22.969-51.27-51.27v-10.254l20.508-20.508h184.57L368.793,328.461z"/>
<path style="fill:#3C3A41;" d="M348.285,307.953l20.508,20.508v10.254c0,28.301-22.969,51.27-51.27,51.27H256v-82.031
	L348.285,307.953L348.285,307.953z"/>
<rect x="143.21" y="204.73" style="fill:#FC4629;" width="225.59" height="123.73"/>
<rect x="256" y="204.73" style="fill:#FF2615;" width="112.79" height="123.73"/>
<g>
</g>
<g>
</g>
<g>
</g>
<g>
</g>
<g>
</g>
<g>
</g>
<g>
</g>
<g>
</g>
<g>
</g>
<g>
</g>
<g>
</g>
<g>
</g>
<g>
</g>
<g>
</g>
<g>
</g>
</svg>
