<?xml version="1.0" encoding="iso-8859-1"?>
<!-- Generator: Adobe Illustrator 19.0.0, SVG Export Plug-In . SVG Version: 6.00 Build 0)  -->
<svg version="1.1" id="Capa_1" xmlns="http://www.w3.org/2000/svg" xmlns:xlink="http://www.w3.org/1999/xlink" x="0px" y="0px"
	 viewBox="0 0 512 512" style="enable-background:new 0 0 512 512;" xml:space="preserve">
<circle style="fill:#FC4629;" cx="256" cy="256" r="256"/>
<path style="fill:#AA0031;" d="M504.452,317.882L275.57,89l-39.141,69.57l-49.578-50L89,285.355l19.57,19l20.733,98.861
	L237.41,511.324c6.14,0.44,12.337,0.676,18.59,0.676C376.045,512,476.775,429.366,504.452,317.882z"/>
<path style="fill:#57555C;" d="M236.43,89v176.785h39.141V89H236.43z"/>
<rect x="256" y="89" style="fill:#3C3A41;" width="19.57" height="176.78"/>
<polygon style="fill:#17ACE8;" points="186.852,108.57 186.852,148.363 157.496,167.934 128.141,148.363 128.141,108.57 "/>
<polygon style="fill:#1689FC;" points="186.852,108.57 186.852,148.363 157.496,167.934 157.496,108.57 "/>
<path style="fill:#EFE6DE;" d="M193.701,200.225c-4.305-4.502-6.849-10.373-6.849-16.831v-35.03h-58.711v35.03
	c0,6.459-2.544,12.329-6.849,16.831c-8.22,8.023-12.721,18.983-12.721,30.53v35.03h97.852v-35.03
	C206.422,219.208,201.921,208.248,193.701,200.225z"/>
<path style="fill:#DFCCBF;" d="M206.422,230.755v35.03h-48.926V148.363h29.355v35.03c0,6.459,2.544,12.329,6.849,16.831
	C201.921,208.248,206.422,219.208,206.422,230.755z"/>
<path style="fill:#6ECD24;" d="M403.43,265.785v88.066c0,37.771-31.378,69.148-69.148,69.148H177.066
	c-37.771,0-68.496-31.378-68.496-69.148v-88.066H403.43z"/>
<path style="fill:#66BD21;" d="M403.43,265.785v88.066c0,37.771-31.378,69.148-69.148,69.148H256V265.785H403.43z"/>
<path style="fill:#FEA832;" d="M423,304.926v39.141h-31.704c-10.373,0-21.201,1.566-30.986,4.893
	c-5.284,1.762-10.763,3.131-16.244,4.11c-7.241,1.37-14.286,2.152-21.527,2.152c-17.81,0-35.228-4.11-51.274-12.133l-5.48-2.74
	v-39.141l5.48-16.83l72.801,0.586l47.23,0.392L423,304.926z"/>
<polygon style="fill:#BF6015;" points="285.355,265.785 265.785,285.355 89,285.355 89,246.215 265.785,246.215 "/>
<polygon style="fill:#994C10;" points="285.355,265.785 265.785,285.355 256,285.355 256,246.215 265.785,246.215 "/>
<path style="fill:#FE9923;" d="M423,304.926v39.141h-31.704c-10.373,0-21.201,1.566-30.986,4.893
	c-5.284,1.762-10.763,3.131-16.244,4.11v-68.105l47.23,0.392L423,304.926z"/>
<path style="fill:#FEDB41;" d="M423,246.215v58.711h-31.704c-10.373,0-21.201,1.566-30.986,4.893
	c-5.284,1.762-10.763,3.131-16.244,4.11c-7.241,1.37-14.286,2.152-21.527,2.152c-17.81,0-35.228-4.11-51.274-12.133l-5.48-2.74
	v-54.993L423,246.215L423,246.215z"/>
<path style="fill:#FCBF29;" d="M423,246.215v58.711h-31.704c-10.373,0-21.201,1.566-30.986,4.893
	c-5.284,1.762-10.763,3.131-16.244,4.11v-67.714H423z"/>
<g>
</g>
<g>
</g>
<g>
</g>
<g>
</g>
<g>
</g>
<g>
</g>
<g>
</g>
<g>
</g>
<g>
</g>
<g>
</g>
<g>
</g>
<g>
</g>
<g>
</g>
<g>
</g>
<g>
</g>
</svg>
