<?xml version="1.0" encoding="iso-8859-1"?>
<!-- Generator: Adobe Illustrator 19.0.0, SVG Export Plug-In . SVG Version: 6.00 Build 0)  -->
<svg version="1.1" id="Capa_1" xmlns="http://www.w3.org/2000/svg" xmlns:xlink="http://www.w3.org/1999/xlink" x="0px" y="0px"
	 viewBox="0 0 512 512" style="enable-background:new 0 0 512 512;" xml:space="preserve">
<circle style="fill:#FC4629;" cx="256" cy="256" r="256"/>
<path style="fill:#AA0031;" d="M504.757,316.632L284.125,96L204.5,157.5l-58,258.5l95.622,95.622
	C246.717,511.868,251.343,512,256,512C376.493,512,477.524,428.748,504.757,316.632z"/>
<path style="fill:#73553A;" d="M312.25,172.25c-36.243,0-65.625,29.382-65.625,65.625S276.007,303.5,312.25,303.5
	s65.625-29.382,65.625-65.625S348.493,172.25,312.25,172.25z M312.25,266c-15.533,0-28.125-12.592-28.125-28.125
	s12.592-28.125,28.125-28.125s28.125,12.592,28.125,28.125S327.783,266,312.25,266z"/>
<path style="fill:#EFE6DE;" d="M338.687,311.375l-28.875,8.062c-20.812-9-45-6.188-63.187,7.5c-5.812,4.312-12.188,7.875-18.75,10.5
	c-24.75,9.937-53.437,7.313-76.313-7.875l-28.687-41.626c8.25-23.625,23.25-44.062,43.499-58.312
	c15.001-10.688,24.001-28.688,24.001-48v-9.375l37.5-18.062l2.813-1.313l34.687,19.375v9.375c0,19.312,9,37.312,24.001,48
	C316,248.375,333.438,278,338.687,311.375z"/>
<path style="fill:#DFCCBF;" d="M338.687,311.375l-28.875,8.062c-20.812-9-45-6.188-63.187,7.5c-5.812,4.312-12.188,7.875-18.75,10.5
	v-183.25l2.813-1.313l34.687,19.375v9.375c0,19.312,9,37.312,24.001,48C316,248.375,333.438,278,338.687,311.375z"/>
<polygon style="fill:#FEDB41;" points="265.375,134.125 265.375,172.25 190.375,172.25 190.375,134.125 227.875,114.75 "/>
<polygon style="fill:#FCBF29;" points="265.375,172.25 227.875,172.25 227.875,114.75 265.375,134.125 "/>
<path style="fill:#FEDB41;" d="M340.375,331.625v0.75c-0.188,7.688-0.75,15.187-2.062,22.688l-28.688,60.374L304.75,416H146.5
	l-2.812-3.375c-18.188-22.313-28.313-51.188-28.313-81c0-8.438,0.937-16.5,2.438-24.562c1.313-6.563,2.813-12.938,5.063-19.125
	L162.062,314c19.875,13.125,45.188,14.063,65.813,2.812c2.625-1.499,5.063-3,7.5-4.874c23.438-17.625,54.937-21.375,81.75-9.75
	l21.562,9.187C339.625,317.937,340.375,324.688,340.375,331.625z"/>
<path style="fill:#FCBF29;" d="M340.375,331.625v0.75c-0.188,7.688-0.75,15.187-2.062,22.688l-28.688,60.374L304.75,416h-76.875
	v-99.188c2.625-1.499,5.063-3,7.5-4.874c23.438-17.625,54.937-21.375,81.75-9.75l21.562,9.187
	C339.625,317.937,340.375,324.688,340.375,331.625z"/>
<path style="fill:#66BD21;" d="M359.125,322.25c-15.747,0-29.517,11.819-35.065,30.121l9.146,50.757
	c6.985,8.304,16.187,12.872,25.919,12.872c20.682,0,37.5-21.03,37.5-46.875S379.807,322.25,359.125,322.25z"/>
<path style="fill:#6ECD24;" d="M312.25,416c-25.845,0-46.875-16.818-46.875-37.5s21.03-37.5,46.875-37.5s46.875,16.818,46.875,37.5
	S338.095,416,312.25,416z"/>
<polygon style="fill:#896748;" points="284.125,96 265.375,134.125 190.375,134.125 171.625,96 "/>
<polygon style="fill:#73553A;" points="265.375,134.125 227.875,134.125 227.875,96 284.125,96 "/>
<g>
</g>
<g>
</g>
<g>
</g>
<g>
</g>
<g>
</g>
<g>
</g>
<g>
</g>
<g>
</g>
<g>
</g>
<g>
</g>
<g>
</g>
<g>
</g>
<g>
</g>
<g>
</g>
<g>
</g>
</svg>
