<?xml version="1.0" encoding="iso-8859-1"?>
<!-- Generator: Adobe Illustrator 19.0.0, SVG Export Plug-In . SVG Version: 6.00 Build 0)  -->
<svg version="1.1" id="Capa_1" xmlns="http://www.w3.org/2000/svg" xmlns:xlink="http://www.w3.org/1999/xlink" x="0px" y="0px"
	 viewBox="0 0 512 512" style="enable-background:new 0 0 512 512;" xml:space="preserve">
<circle style="fill:#32D736;" cx="256" cy="256" r="256"/>
<path style="fill:#0CA656;" d="M512,256c0-5.219-0.175-10.396-0.483-15.538L408.936,137.881L111.324,397.492l112.5,112.5
	C234.364,511.314,245.102,512,256,512C397.385,512,512,397.385,512,256z"/>
<path style="fill:#EFE6DE;" d="M408.936,137.881l-24.7,24.7l-68.906,30.907l-160.866,72.2l-25.333-25.333l93.987-93.987
	c43.699-43.699,109.819-52.566,162.766-23.433c5.066,2.533,9.88,5.573,14.439,8.867L408.936,137.881z"/>
<path style="fill:#DFCCBF;" d="M408.936,137.881l-24.7,24.7l-68.906,30.907l70.553-70.553c5.066,2.533,9.88,5.573,14.439,8.867
	L408.936,137.881z"/>
<path style="fill:#57555C;" d="M217.796,329.02l-68.472,68.472c-10.513,10.513-27.486,10.514-38,0
	c-10.514-10.513-10.513-27.487,0-38l49.472-49.472c10.514-10.513,10.514-27.486,0-38l38,12.667l7.6,17.733L217.796,329.02z"/>
<path style="fill:#3C3A41;" d="M206.397,302.42l11.399,26.6l-68.472,68.472c-10.513,10.513-27.486,10.514-38,0L206.397,302.42z"/>
<path style="fill:#DFCCBF;" d="M374.356,156.754c-4.813-2.786-9.754-5.446-14.947-7.346c-37.872-15.327-81.826-6.84-111.466,22.8
	l-93.48,93.48l63.333,63.333l166.439-166.439L374.356,156.754z"/>
<path style="fill:#C8AD92;" d="M384.236,162.581L217.796,329.02l-19-19l160.613-160.613c5.194,1.9,10.134,4.56,14.947,7.346
	L384.236,162.581z"/>
<g>
</g>
<g>
</g>
<g>
</g>
<g>
</g>
<g>
</g>
<g>
</g>
<g>
</g>
<g>
</g>
<g>
</g>
<g>
</g>
<g>
</g>
<g>
</g>
<g>
</g>
<g>
</g>
<g>
</g>
</svg>
