<?xml version="1.0" encoding="iso-8859-1"?>
<!-- Generator: Adobe Illustrator 19.0.0, SVG Export Plug-In . SVG Version: 6.00 Build 0)  -->
<svg version="1.1" id="Capa_1" xmlns="http://www.w3.org/2000/svg" xmlns:xlink="http://www.w3.org/1999/xlink" x="0px" y="0px"
	 viewBox="0 0 512 512" style="enable-background:new 0 0 512 512;" xml:space="preserve">
<circle style="fill:#17ACE8;" cx="256" cy="256" r="256"/>
<path style="fill:#136EF1;" d="M511.95,259.972L343,91.022l-59.592,57l-56.408-57L154.694,227l-32.295,5.97L111,362.333
	l49.25,48.583l-10.583,10.061l90.522,90.522c5.231,0.318,10.5,0.5,15.811,0.5C396.057,512,509.824,399.523,511.95,259.972z"/>
<path style="fill:#FF2615;" d="M349.38,207.667L337.973,227H174.027l-11.407-19.333c4.06-9.86,6.38-20.493,6.38-31.32V91.022h58V140
	c0,15.66,12.374,29,29,29c1.547,0,3.286-0.194,5.027-0.387C274.56,166.293,285,153.147,285,137.874V91.022h58v85.325
	C343,187.173,345.32,197.806,349.38,207.667z"/>
<path style="fill:#BF0000;" d="M349.38,207.667L337.973,227H256v-58c1.547,0,3.286-0.194,5.027-0.387
	C274.56,166.293,285,153.147,285,137.874V91.022h58v85.325C343,187.173,345.32,197.806,349.38,207.667z"/>
<path style="fill:#57555C;" d="M159.333,227H140c-15.992,0-29,13.008-29,29v87v9.667v9.667h19.333v-9.667V343v-87
	c0-5.334,4.333-9.667,9.667-9.667h19.333c5.343,0,9.667-4.324,9.667-9.667C169,231.324,164.676,227,159.333,227z"/>
<path style="fill:#3C3A41;" d="M372,227h-19.333c-5.343,0-9.667,4.324-9.667,9.667c0,5.343,4.324,9.667,9.667,9.667H372
	c5.334,0,9.667,4.333,9.667,9.667v67.667v29v9.667H401v-9.667v-29V256C401,240.008,387.992,227,372,227z"/>
<path style="fill:#FC4629;" d="M362.333,258.32v162.658H149.667V258.32c0-10.633,1.741-21.267,5.027-31.32
	c1.547-4.833,3.48-9.473,5.606-13.921c0.966-1.739,1.547-3.673,2.32-5.413h186.76c0.773,1.739,1.353,3.673,2.32,5.413
	c2.126,4.447,4.059,9.087,5.606,13.921C360.593,237.053,362.333,247.687,362.333,258.32z"/>
<path style="fill:#FF2615;" d="M362.333,258.32v162.658H256V207.667h93.38c0.773,1.739,1.353,3.673,2.32,5.413
	c2.126,4.447,4.059,9.087,5.606,13.921C360.593,237.053,362.333,247.687,362.333,258.32z"/>
<path style="fill:#DFCCBF;" d="M323.667,304.333V314c0,36.153-29.773,67.667-67.667,67.667c-38.086,0-67.667-31.707-67.667-67.667
	v-9.667L210.953,285h98.987L323.667,304.333z"/>
<path style="fill:#C8AD92;" d="M309.94,285l13.727,19.333V314c0,36.153-29.773,67.667-67.667,67.667V285H309.94z"/>
<rect x="188.33" y="265.67" style="fill:#EFE6DE;" width="135.33" height="38.667"/>
<rect x="256" y="265.67" style="fill:#DFCCBF;" width="67.67" height="38.667"/>
<g>
</g>
<g>
</g>
<g>
</g>
<g>
</g>
<g>
</g>
<g>
</g>
<g>
</g>
<g>
</g>
<g>
</g>
<g>
</g>
<g>
</g>
<g>
</g>
<g>
</g>
<g>
</g>
<g>
</g>
</svg>
