<?xml version="1.0" encoding="iso-8859-1"?>
<!-- Generator: Adobe Illustrator 19.0.0, SVG Export Plug-In . SVG Version: 6.00 Build 0)  -->
<svg version="1.1" id="Capa_1" xmlns="http://www.w3.org/2000/svg" xmlns:xlink="http://www.w3.org/1999/xlink" x="0px" y="0px"
	 viewBox="0 0 512 512" style="enable-background:new 0 0 512 512;" xml:space="preserve">
<circle style="fill:#BF6015;" cx="256" cy="256" r="256"/>
<path style="fill:#713708;" d="M511.37,273.855L399,161.486l-64.547,38.622l-36-36.834L283.91,173.84l-48.076-48.052L113,399
	l111.014,111.014C234.493,511.32,245.167,512,256,512C391.381,512,502.201,406.908,511.37,273.855z"/>
<path style="fill:#FEDB41;" d="M246.783,163.273c0.502-2.682,0.838-5.53,0.838-8.379c0-23.126-18.769-41.895-41.895-41.895
	s-41.895,18.769-41.895,41.895c0,2.849,0.335,5.697,0.838,8.379H113V399h185.453V163.273H246.783z"/>
<path style="fill:#FEA832;" d="M298.453,163.273V399h-92.727V113c23.126,0,41.895,18.769,41.895,41.895
	c0,2.849-0.335,5.697-0.838,8.379h51.67V163.273z"/>
<path style="fill:#FF2615;" d="M205.727,289.516c-23.126,0-41.895,18.769-41.895,41.895s18.769,41.895,41.895,41.895
	s41.895-18.769,41.895-41.895S228.852,289.516,205.727,289.516z"/>
<path style="fill:#BF0000;" d="M247.621,331.41c0,23.126-18.769,41.895-41.895,41.895v-83.789
	C228.852,289.516,247.621,308.284,247.621,331.41z"/>
<path style="fill:#EFE6DE;" d="M399,161.486v30.667l-25.137,69.712l-25.137,69.545H315.21v-73.399
	c0-39.214,23.461-73.903,58.652-88.816c4.693-2.179,9.72-3.687,14.747-5.028L399,161.486z"/>
<path style="fill:#DFCCBF;" d="M399,161.486v30.667l-25.137,69.712v-92.67c4.693-2.179,9.72-3.687,14.747-5.028L399,161.486z"/>
<path style="fill:#57555C;" d="M399,331.41v41.895C399,387.213,387.773,399,373.863,399s-25.137-11.787-25.137-25.695V331.41
	l25.137-16.758L399,331.41z"/>
<path style="fill:#3C3A41;" d="M399,331.41v41.895C399,387.213,387.773,399,373.863,399v-84.348L399,331.41z"/>
<path style="fill:#DFCCBF;" d="M386.935,198.185c-4.693,2.346-9.05,5.195-13.072,8.714c-15.752,12.735-25.137,32.007-25.137,53.122
	v71.388H399V192.153L386.935,198.185z"/>
<path style="fill:#C8AD92;" d="M399,192.153V331.41h-25.137V206.9c4.022-3.52,8.379-6.368,13.072-8.714L399,192.153z"/>
<path style="fill:#6ECD24;" d="M205.727,239.242c-23.126,0-41.895,18.769-41.895,41.895s18.769,41.895,41.895,41.895
	s41.895-18.769,41.895-41.895S228.852,239.242,205.727,239.242z"/>
<path style="fill:#66BD21;" d="M247.621,281.137c0,23.126-18.769,41.895-41.895,41.895v-83.789
	C228.852,239.242,247.621,258.011,247.621,281.137z"/>
<path style="fill:#FC4629;" d="M205.727,188.969c-23.126,0-41.895,18.769-41.895,41.895s18.769,41.895,41.895,41.895
	s41.895-18.769,41.895-41.895S228.852,188.969,205.727,188.969z"/>
<path style="fill:#FF2615;" d="M247.621,230.863c0,23.126-18.769,41.895-41.895,41.895v-83.789
	C228.852,188.969,247.621,207.737,247.621,230.863z"/>
<rect x="197.35" y="146.52" style="fill:#EFE6DE;" width="16.758" height="16.758"/>
<rect x="205.73" y="146.52" style="fill:#DFCCBF;" width="8.379" height="16.758"/>
<g>
</g>
<g>
</g>
<g>
</g>
<g>
</g>
<g>
</g>
<g>
</g>
<g>
</g>
<g>
</g>
<g>
</g>
<g>
</g>
<g>
</g>
<g>
</g>
<g>
</g>
<g>
</g>
<g>
</g>
</svg>
