<?xml version="1.0" encoding="iso-8859-1"?>
<!-- Generator: Adobe Illustrator 19.0.0, SVG Export Plug-In . SVG Version: 6.00 Build 0)  -->
<svg version="1.1" id="Capa_1" xmlns="http://www.w3.org/2000/svg" xmlns:xlink="http://www.w3.org/1999/xlink" x="0px" y="0px"
	 viewBox="0 0 512 512" style="enable-background:new 0 0 512 512;" xml:space="preserve">
<circle style="fill:#FEDB41;" cx="256" cy="256" r="256"/>
<path style="fill:#FE9923;" d="M511.831,264.847L441,194.015L314,104.5l-64.357,89.515L250,248.332L119.793,392.207l119.218,119.219
	C244.629,511.793,250.29,512,256,512C394.422,512,507.167,402.133,511.831,264.847z"/>
<path style="fill:#57555C;" d="M222.306,330.699l-61.508,61.508c-11.344,11.344-29.66,11.345-41.005,0s-11.344-29.661,0-41.005
	l61.508-61.508L222.306,330.699z"/>
<path style="fill:#3C3A41;" d="M222.306,330.699l-61.508,61.508c-11.344,11.344-29.66,11.345-41.005,0l82.01-82.01L222.306,330.699z
	"/>
<rect x="187.651" y="266.364" transform="matrix(-0.7071 0.7071 -0.7071 -0.7071 598.017 304.3519)" style="fill:#DFCCBF;" width="96.649" height="19.33"/>
<rect x="191.065" y="274.605" transform="matrix(-0.7071 0.7071 -0.7071 -0.7071 606.2565 307.7555)" style="fill:#C8AD92;" width="96.649" height="9.665"/>
<path style="fill:#BF6015;" d="M229.14,351.202l-6.834,6.834l-68.342-68.342l6.834-6.834c18.862-18.862,49.479-18.862,68.342,0
	c9.431,9.431,14.216,21.869,14.216,34.171C243.355,329.332,238.571,341.771,229.14,351.202z"/>
<path style="fill:#994C10;" d="M243.356,317.031c-0.001,12.301-4.784,24.74-14.216,34.171l-6.834,6.834l-34.171-34.171
	l41.005-41.005C238.571,292.291,243.356,304.729,243.356,317.031z"/>
<path style="fill:#EFE6DE;" d="M317.985,71L194.969,194.015L317.984,317.03L441,194.015L317.985,71z M263.311,207.684
	l-13.668-13.668l68.342-68.342l13.668,13.668L263.311,207.684z M290.648,235.021l-13.668-13.668l68.342-68.342l13.668,13.668
	L290.648,235.021z M317.985,262.357l-13.668-13.668l68.342-68.342l13.668,13.668L317.985,262.357z"/>
<path style="fill:#DFCCBF;" d="M379.492,132.508l-27.337,27.337l6.834,6.834l-68.342,68.342l-6.834-6.834l-27.337,27.337
	l61.508,61.508L441,194.015L379.492,132.508z M317.985,262.357l-13.668-13.668l68.342-68.342l13.668,13.668L317.985,262.357z"/>
<g>
</g>
<g>
</g>
<g>
</g>
<g>
</g>
<g>
</g>
<g>
</g>
<g>
</g>
<g>
</g>
<g>
</g>
<g>
</g>
<g>
</g>
<g>
</g>
<g>
</g>
<g>
</g>
<g>
</g>
</svg>
