<?xml version="1.0" encoding="iso-8859-1"?>
<!-- Generator: Adobe Illustrator 19.0.0, SVG Export Plug-In . SVG Version: 6.00 Build 0)  -->
<svg version="1.1" id="Capa_1" xmlns="http://www.w3.org/2000/svg" xmlns:xlink="http://www.w3.org/1999/xlink" x="0px" y="0px"
	 viewBox="0 0 512 512" style="enable-background:new 0 0 512 512;" xml:space="preserve">
<circle style="fill:#FC4629;" cx="256" cy="256" r="256"/>
<path style="fill:#AA0031;" d="M511.774,266.352L378.711,133.289L297.266,142l-24.977-25l-32.578,41.289l-24.977-25l-81.445,16.289
	l16.289,16L174.175,302.5L117,395l115.956,115.956C240.549,511.634,248.231,512,256,512
	C393.916,512,506.339,402.935,511.774,266.352z"/>
<rect x="239.71" y="117" style="fill:#BF6015;" width="32.578" height="163.43"/>
<rect x="256" y="117" style="fill:#994C10;" width="16.289" height="163.43"/>
<path style="fill:#6ECD24;" d="M378.385,231.566L337.988,329.3h-40.723v-94.314c0-9.61,3.746-18.732,10.588-25.411
	c3.583-3.746,5.701-8.633,5.701-14.008v-12.868l24.434-16.289l24.434,16.289v12.868c0,5.376,2.118,10.262,5.701,14.008
	C374.15,215.44,377.571,223.259,378.385,231.566z"/>
<path style="fill:#66BD21;" d="M378.385,231.566L337.988,329.3V166.41l24.434,16.289v12.868c0,5.376,2.118,10.262,5.701,14.008
	C374.15,215.44,377.571,223.259,378.385,231.566z"/>
<rect x="313.56" y="133.29" style="fill:#EFE6DE;" width="48.867" height="49.41"/>
<g>
	<rect x="337.99" y="133.29" style="fill:#DFCCBF;" width="24.434" height="49.41"/>
	<path style="fill:#DFCCBF;" d="M378.711,234.939c0-1.145-0.224-2.246-0.329-3.372h-40.394v97.734h40.723L378.711,234.939
		L378.711,234.939z"/>
</g>
<path style="fill:#6ECD24;" d="M214.734,234.986V329.3h-40.723l-40.397-97.734c0.814-8.308,4.235-16.126,10.262-21.991
	c3.583-3.746,5.701-8.633,5.701-14.008v-12.868l24.434-16.289l24.434,16.289v12.868c0,5.376,2.118,10.262,5.701,14.008
	C210.988,216.255,214.734,225.376,214.734,234.986z"/>
<path style="fill:#66BD21;" d="M214.734,234.986V329.3h-40.723V166.41l24.434,16.289v12.868c0,5.376,2.118,10.262,5.701,14.008
	C210.988,216.255,214.734,225.376,214.734,234.986z"/>
<rect x="149.58" y="133.29" style="fill:#EFE6DE;" width="48.867" height="49.41"/>
<rect x="174.01" y="133.29" style="fill:#DFCCBF;" width="24.434" height="49.41"/>
<path style="fill:#EFE6DE;" d="M133.289,234.939c0-1.145,0.224-2.246,0.329-3.372h40.394v97.734h-40.723V234.939z"/>
<polygon style="fill:#FEA832;" points="395,345.59 395,395 117,395 117,345.59 133.289,329.301 378.385,329.301 "/>
<polygon style="fill:#FE9923;" points="395,345.59 395,395 256,395 256,329.301 378.385,329.301 "/>
<polygon style="fill:#FEDB41;" points="395,299.492 395,345.59 117,345.59 117,299.492 239.711,247.855 272.289,247.855 "/>
<polygon style="fill:#FCBF29;" points="395,299.492 395,345.59 256,345.59 256,247.855 272.289,247.855 "/>
<path style="fill:#BF6015;" d="M256,313.012c-32.578,0-57.555,14.008-57.555,32.578s24.977,32.578,57.555,32.578
	s57.555-14.008,57.555-32.578S288.578,313.012,256,313.012z"/>
<path style="fill:#994C10;" d="M313.555,345.59c0,18.57-24.977,32.578-57.555,32.578v-65.156
	C288.578,313.012,313.555,327.02,313.555,345.59z"/>
<rect x="297.27" y="133.29" style="fill:#57555C;" width="81.44" height="16.289"/>
<rect x="337.99" y="133.29" style="fill:#3C3A41;" width="40.723" height="16.289"/>
<rect x="133.29" y="133.29" style="fill:#57555C;" width="81.44" height="16.289"/>
<rect x="174.01" y="133.29" style="fill:#3C3A41;" width="40.723" height="16.289"/>
<g>
</g>
<g>
</g>
<g>
</g>
<g>
</g>
<g>
</g>
<g>
</g>
<g>
</g>
<g>
</g>
<g>
</g>
<g>
</g>
<g>
</g>
<g>
</g>
<g>
</g>
<g>
</g>
<g>
</g>
</svg>
