<?xml version="1.0" encoding="iso-8859-1"?>
<!-- Generator: Adobe Illustrator 19.0.0, SVG Export Plug-In . SVG Version: 6.00 Build 0)  -->
<svg version="1.1" id="Capa_1" xmlns="http://www.w3.org/2000/svg" xmlns:xlink="http://www.w3.org/1999/xlink" x="0px" y="0px"
	 viewBox="0 0 512 512" style="enable-background:new 0 0 512 512;" xml:space="preserve">
<circle style="fill:#17ACE8;" cx="256" cy="256" r="256"/>
<path style="fill:#136EF1;" d="M512,256c0-4.204-0.109-8.383-0.309-12.538L409.229,141l-108.808,11.513L246,126l-42.082,0.03
	l-7.888,59.732l-0.632,253.841l72.127,72.127C403.559,505.701,512,393.521,512,256z"/>
<path style="fill:#EFE6DE;" d="M410,141.771L370.229,102l-118.558,85.787l72.542,72.542L410,141.771z"/>
<polygon style="fill:#DFCCBF;" points="324.213,260.329 287.942,224.058 390.115,121.885 410,141.771 "/>
<path style="fill:#57555C;" d="M252.932,161.04l-42.012,42.012l98.028,98.028l42.012-42.012L252.932,161.04z"/>
<rect x="275.739" y="220.914" transform="matrix(-0.7071 0.7071 -0.7071 -0.7071 702.1427 220.3098)" style="fill:#3C3A41;" width="59.409" height="69.319"/>
<path style="fill:#57555C;" d="M378.968,231.06l-105.03-105.03c-19.326-19.326-50.695-19.326-70.02,0s-19.326,50.695,0,70.02
	l7.002,7.002c3.922,3.922,10.083,3.921,14.004,0c3.922-3.922,3.922-10.083,0-14.004l-7.002-7.002
	c-11.624-11.624-11.623-30.389,0-42.012c11.624-11.624,30.389-11.624,42.012,0l105.03,105.03L378.968,231.06z"/>
<rect x="312.796" y="203.65" transform="matrix(-0.7071 -0.7071 0.7071 -0.7071 442.1405 610.2444)" style="fill:#3C3A41;" width="69.319" height="19.805"/>
<path style="fill:#FC4629;" d="M249.71,401.489L195.795,440L72,316.205l23.246-32.77l31.649,3.641l56.016-56.016l-5.602-33.61
	c9.383-6.301,19.046-12.323,29.27-17.225l6.301-3.221L334.995,299.12l-3.221,6.301C312.729,343.513,284.442,376.842,249.71,401.489z
	"/>
<path style="fill:#FF2615;" d="M249.71,401.489L195.795,440l-61.898-61.898l140.04-140.04l61.057,61.057l-3.221,6.301
	C312.729,343.513,284.442,376.842,249.71,401.489z"/>
<path style="fill:#FEDB41;" d="M280.94,301.08l-84.024,84.024L95.246,283.435l15.265-21.145
	c18.205-25.487,40.892-47.335,66.799-64.84L280.94,301.08z"/>
<rect x="196.667" y="266.175" transform="matrix(0.7071 0.7071 -0.7071 0.7071 295.0792 -61.2058)" style="fill:#FCBF29;" width="49.51" height="118.829"/>
<g>
</g>
<g>
</g>
<g>
</g>
<g>
</g>
<g>
</g>
<g>
</g>
<g>
</g>
<g>
</g>
<g>
</g>
<g>
</g>
<g>
</g>
<g>
</g>
<g>
</g>
<g>
</g>
<g>
</g>
</svg>
