<?xml version="1.0" encoding="iso-8859-1"?>
<!-- Generator: Adobe Illustrator 19.0.0, SVG Export Plug-In . SVG Version: 6.00 Build 0)  -->
<svg version="1.1" id="Capa_1" xmlns="http://www.w3.org/2000/svg" xmlns:xlink="http://www.w3.org/1999/xlink" x="0px" y="0px"
	 viewBox="0 0 512 512" style="enable-background:new 0 0 512 512;" xml:space="preserve">
<circle style="fill:#BF6015;" cx="256" cy="256" r="256"/>
<path style="fill:#713708;" d="M511.979,257.675L399.215,144.911L88,246.156l10.311,10L88,280.215l19.687,19.336v25.355
	l1.218,58.897l127.454,127.454C242.842,511.749,249.392,512,256,512C396.825,512,511.076,398.287,511.979,257.675z"/>
<rect x="107.69" y="265.84" style="fill:#FC4629;" width="296.62" height="78.75"/>
<rect x="256" y="265.84" style="fill:#FF2615;" width="148.31" height="78.75"/>
<path style="fill:#6ECD24;" d="M424,280.412l-9.253,4.135c-8.467,3.937-13.389,8.858-20.87,14.371
	c-7.284,5.316-16.734,7.481-25.791,5.906c-9.055-1.575-16.734-6.693-21.853-14.371c-5.315-7.875-17.718-7.875-23.034,0
	c-6.3,9.45-17.39,14.963-28.612,14.963s-21.657-5.513-27.76-14.963c-2.362-3.741-6.497-5.71-10.828-5.906
	c-4.528-0.197-9.45,1.771-12.206,5.906c-6.3,9.45-16.734,14.963-27.956,14.963s-21.657-5.513-27.76-14.963
	c-5.315-7.875-17.718-7.875-23.034,0c-5.119,7.874-13.19,12.993-22.247,14.569c-1.968,0.197-3.741,0.394-5.513,0.394
	c-7.48,0-15.225-2.362-21.131-6.891c-6.89-5.315-11.419-10.041-19.293-13.977L88,280.215l20.672-48.235h294.657L424,280.412z"/>
<path style="fill:#66BD21;" d="M266.828,290.453c-2.362-3.741-6.497-5.71-10.828-5.906v-52.566h147.328L424,280.412l-9.253,4.135
	c-8.467,3.937-13.389,8.858-20.87,14.371c-7.284,5.316-16.734,7.481-25.791,5.906c-9.055-1.575-16.734-6.693-21.853-14.371
	c-5.315-7.875-17.718-7.875-23.034,0c-6.3,9.45-17.39,14.963-28.612,14.963S272.931,299.903,266.828,290.453z"/>
<path style="fill:#FEA832;" d="M256,108.344c-80.915,0-168,8.268-168,108.281v29.531h336v-29.531
	C424,116.612,336.915,108.344,256,108.344z"/>
<path style="fill:#FE9923;" d="M424,216.625v29.531H256V108.344C336.915,108.344,424,116.612,424,216.625z"/>
<rect x="246.16" y="187.09" style="fill:#FEDB41;" width="19.688" height="19.688"/>
<g>
	<rect x="285.53" y="147.72" style="fill:#FCBF29;" width="19.688" height="19.688"/>
	<rect x="325.56" y="187.09" style="fill:#FCBF29;" width="19.688" height="19.688"/>
</g>
<g>
	<rect x="167.41" y="187.09" style="fill:#FEDB41;" width="19.688" height="19.688"/>
	<rect x="206.78" y="147.72" style="fill:#FEDB41;" width="19.688" height="19.688"/>
</g>
<rect x="256" y="187.09" style="fill:#FCBF29;" width="9.844" height="19.688"/>
<path style="fill:#FEA832;" d="M88,324.906v9.844c0,37.997,31.566,68.906,69.563,68.906h197.531
	c37.997,0,68.906-30.91,68.906-68.906v-9.844H88z"/>
<path style="fill:#FE9923;" d="M256,324.906h168v9.844c0,37.997-30.91,68.906-68.906,68.906H256V324.906z"/>
<g>
</g>
<g>
</g>
<g>
</g>
<g>
</g>
<g>
</g>
<g>
</g>
<g>
</g>
<g>
</g>
<g>
</g>
<g>
</g>
<g>
</g>
<g>
</g>
<g>
</g>
<g>
</g>
<g>
</g>
</svg>
