<?xml version="1.0" encoding="iso-8859-1"?>
<!-- Generator: Adobe Illustrator 19.0.0, SVG Export Plug-In . SVG Version: 6.00 Build 0)  -->
<svg version="1.1" id="Capa_1" xmlns="http://www.w3.org/2000/svg" xmlns:xlink="http://www.w3.org/1999/xlink" x="0px" y="0px"
	 viewBox="0 0 512 512" style="enable-background:new 0 0 512 512;" xml:space="preserve">
<circle style="fill:#FC4629;" cx="256" cy="256" r="256"/>
<path style="fill:#AA0031;" d="M282.805,510.606C411.591,497.205,512,388.332,512,256c0-3.512-0.091-7.003-0.231-10.481
	L406.731,140.481L92,179.305l55,54.981l27.468,37.809l39.716,39.721l-43.662,86.509L282.805,510.606z"/>
<g>
	<rect x="92" y="160.09" style="fill:#57555C;" width="58.938" height="19.219"/>
	<path style="fill:#57555C;" d="M371.953,343.305c0,5.382-4.228,9.609-9.609,9.609h-166.05c-5.381,0-9.609-4.228-9.609-9.609
		s4.229-9.609,9.609-9.609h166.05C367.726,333.695,371.953,337.923,371.953,343.305z"/>
</g>
<path style="fill:#3C3A41;" d="M371.953,343.305c0,5.382-4.228,9.609-9.609,9.609H275.86v-19.219h86.484
	C367.726,333.695,371.953,337.923,371.953,343.305z"/>
<path style="fill:#57555C;" d="M189.009,403.598l32.075-112.913c1.455-5.096-1.501-10.416-6.606-11.88
	c-5.039-1.426-10.416,1.492-11.88,6.606l-32.075,112.913L189.009,403.598z"/>
<path style="fill:#3C3A41;" d="M355.69,353.684c-4.176,0-8.023-2.75-9.234-6.972l-15.822-56.026
	c-1.455-5.105,1.501-10.416,6.606-11.88c5.067-1.408,10.416,1.492,11.88,6.606l15.822,56.026c1.455,5.105-1.501,10.416-6.606,11.88
	C357.455,353.562,356.572,353.684,355.69,353.684z"/>
<path style="fill:#57555C;" d="M362.344,333.695c-21.14,0-38.438,17.297-38.438,38.438s17.297,38.438,38.438,38.438
	s38.438-17.297,38.438-38.438S383.484,333.695,362.344,333.695z"/>
<path style="fill:#3C3A41;" d="M400.781,372.133c0,21.14-17.297,38.438-38.438,38.438v-76.875
	C383.484,333.695,400.781,350.993,400.781,372.133z"/>
<path style="fill:#EFE6DE;" d="M362.344,352.914c-10.57,0-19.219,8.649-19.219,19.219s8.649,19.219,19.219,19.219
	s19.219-8.649,19.219-19.219S372.914,352.914,362.344,352.914z"/>
<path style="fill:#DFCCBF;" d="M381.563,372.133c0,10.57-8.649,19.219-19.219,19.219v-38.438
	C372.914,352.914,381.563,361.563,381.563,372.133z"/>
<path style="fill:#17ACE8;" d="M420,169.695c0,39.783-16.144,75.722-42.281,101.859s-62.076,42.281-101.859,42.281
	c-79.566,0-144.141-64.575-144.141-144.141L420,169.695L420,169.695z"/>
<path style="fill:#1689FC;" d="M420,169.695c0,39.783-16.144,75.722-42.281,101.859s-62.076,42.281-101.859,42.281v-144.14H420z"/>
<path style="fill:#EFE6DE;" d="M420,169.695c0,13.069-7.303,24.984-19.987,34.978H151.706c-12.684-9.994-19.987-21.91-19.987-34.978
	c0-38.438,61.884-67.266,144.141-67.266S420,131.258,420,169.695z"/>
<path style="fill:#DFCCBF;" d="M420,169.695c0,13.069-7.303,24.984-19.987,34.978H275.859V102.43
	C358.116,102.43,420,131.258,420,169.695z"/>
<path style="fill:#3C3A41;" d="M400.781,198.523c0,2.114-0.192,4.228-0.768,6.15c-5.767,4.612-12.493,8.649-20.372,12.491
	c-10.571,4.997-22.87,9.033-36.516,12.3c-4.228,0.961-8.456-17.296-12.876-16.528c-2.115,0.385-4.229,19.987-6.343,20.372
	c-12.108,1.73-24.984,3.074-38.438,3.459c-3.267,0-6.343-19.026-9.609-19.026s-6.343,19.026-9.609,19.026
	c-13.453-0.385-26.33-1.729-38.438-3.459c-3.844-0.576-7.496-20.564-10.955-21.14c-2.882-0.577-5.573,18.066-8.264,17.296
	c-13.646-3.267-25.945-7.303-36.516-12.3c-7.879-3.843-14.605-7.879-20.372-12.491c-0.576-1.923-0.768-4.036-0.768-6.15
	c0-20.372,23.063-38.245,57.656-48.624c4.228-1.153,8.456,16.913,12.876,15.952c2.115-0.384,4.229-20.179,6.343-20.564
	c11.916-2.306,24.984-3.652,38.438-4.228c3.267,0,6.343,19.026,9.609,19.026s6.343-19.026,9.609-19.026
	c13.453,0.576,26.522,1.921,38.438,4.228c2.114,0.385,4.228,20.181,6.343,20.564c4.42,0.961,8.649-17.105,12.876-15.952
	C377.719,160.278,400.781,178.152,400.781,198.523z"/>
<path style="fill:#2B292C;" d="M400.781,198.523c0,2.114-0.192,4.228-0.768,6.15c-13.453,10.762-33.057,19.219-56.888,24.792
	c-4.228,0.961-8.456-17.296-12.876-16.528c-2.115,0.385-4.229,19.987-6.343,20.372c-12.108,1.73-24.984,3.074-38.438,3.459
	c-3.267,0-6.343-19.026-9.609-19.026v-57.656c3.267,0,6.343-19.026,9.609-19.026c13.453,0.576,26.522,1.921,38.438,4.228
	c2.114,0.385,4.228,20.181,6.343,20.564c4.42,0.961,8.649-17.105,12.876-15.952C377.719,160.278,400.781,178.152,400.781,198.523z"
	/>
<path style="fill:#FC4629;" d="M381.563,208.133c0,3.074-0.577,6.15-1.921,9.032c-10.571,4.997-22.87,9.033-36.516,12.3
	c-4.228,0.961-8.456-17.296-12.876-16.528c-2.115,0.385-4.229,19.987-6.343,20.372c-12.108,1.73-24.984,3.074-38.438,3.459
	c-3.267,0-6.343-19.026-9.609-19.026s-6.343,19.026-9.609,19.026c-13.453-0.385-26.33-1.729-38.438-3.459
	c-3.844-0.576-7.496-20.564-10.955-21.14c-2.882-0.577-5.573,18.066-8.264,17.296c-13.646-3.267-25.945-7.303-36.516-12.3
	c-1.344-2.882-1.921-5.958-1.921-9.032c0-26.522,47.279-48.047,105.703-48.047S381.563,181.611,381.563,208.133z"/>
<path style="fill:#FF2615;" d="M381.563,208.133c0,3.074-0.577,6.15-1.921,9.032c-10.571,4.997-22.87,9.033-36.516,12.3
	c-4.228,0.961-8.456-17.296-12.876-16.528c-2.115,0.385-4.229,19.987-6.343,20.372c-12.108,1.73-24.984,3.074-38.438,3.459
	c-3.267,0-6.343-19.026-9.609-19.026v-57.656C334.284,160.086,381.563,181.611,381.563,208.133z"/>
<path style="fill:#3C3A41;" d="M285.469,141.06v95.709c-3.267,0-6.343,0.192-9.609,0.192s-6.343-0.192-9.609-0.192V141.06
	c3.267,0,6.343-0.192,9.609-0.192S282.202,141.06,285.469,141.06z"/>
<g>
	<path style="fill:#2B292C;" d="M285.469,141.06v95.709c-3.267,0-6.343,0.192-9.609,0.192v-96.094
		C279.126,140.867,282.202,141.06,285.469,141.06z"/>
	<path style="fill:#2B292C;" d="M323.906,145.301v87.951c6.669-1.039,13.082-2.276,19.219-3.728V149.99
		C337.042,148.19,330.648,146.6,323.906,145.301z"/>
</g>
<path style="fill:#3C3A41;" d="M208.594,149.99v79.534c6.137,1.452,12.55,2.689,19.219,3.728v-87.951
	C221.071,146.6,214.677,148.19,208.594,149.99z"/>
<g>
</g>
<g>
</g>
<g>
</g>
<g>
</g>
<g>
</g>
<g>
</g>
<g>
</g>
<g>
</g>
<g>
</g>
<g>
</g>
<g>
</g>
<g>
</g>
<g>
</g>
<g>
</g>
<g>
</g>
</svg>
